<svg version="1.1" xmlns="http://www.w3.org/2000/svg" xmlns:xlink="http://www.w3.org/1999/xlink" width="1092" height="356"><defs></defs><g><g transform="translate(-30,10) scale(1,1)"><path fill="none" stroke="#000000" d="M 48 0 L 1112 0 L 1112 336 L 48 336 L 48 0" stroke-miterlimit="10"></path></g><g transform="translate(-30,10) scale(1,1)"><path fill="#ffffff" stroke="none" d="M 48 0 L 48 22 L 340 22 L 351 11 L 351 0 L 48 0"></path></g><g transform="translate(-30,10) scale(1,1)"><path fill="none" stroke="#000000" d="M 48 0 L 48 22 L 340 22 L 351 11 L 351 0 L 48 0 L 48 0" stroke-miterlimit="10"></path></g><g transform="translate(-30,10) scale(1,1)"><g><path fill="none" stroke="none"></path><text fill="#000000" stroke="none" font-family="Arial" font-size="13px" font-style="normal" font-weight="normal" text-decoration="none" x="119" y="17.5">Zusammenspiel Programmkonstrukte</text></g></g><g transform="translate(-30,10) scale(1,1)"><g><path fill="none" stroke="none"></path><text fill="#000000" stroke="none" font-family="Arial" font-size="13px" font-style="normal" font-weight="bold" text-decoration="none" x="53" y="17.5">interaction</text></g></g><g transform="translate(-30,10) scale(1,1)"><rect fill="#C0C0C0" stroke="none" x="255" y="47" width="87" height="39" opacity="0.2"></rect></g><g transform="translate(-30,10) scale(1,1)"><rect fill="#ffffff" stroke="none" x="248" y="40" width="87" height="39"></rect></g><g transform="translate(-30,10) scale(1,1)"><path fill="none" stroke="#000000" d="M 248 40 L 335 40 L 335 79 L 248 79 L 248 40 Z Z" stroke-miterlimit="10"></path></g><g transform="translate(-30,10) scale(1,1)"><g><path fill="none" stroke="none"></path><text fill="#000000" stroke="none" font-family="Arial" font-size="13px" font-style="normal" font-weight="bold" text-decoration="none" x="268" y="59.5">Browser</text></g></g><g transform="translate(-30,10) scale(1,1)"><path fill="none" stroke="#000000" d="M 292.5 80 L 292.5 326" stroke-miterlimit="10" stroke-dasharray="3"></path></g><g transform="translate(-30,10) scale(1,1)"><rect fill="#C0C0C0" stroke="none" x="431" y="47" width="118" height="39" opacity="0.2"></rect></g><g transform="translate(-30,10) scale(1,1)"><rect fill="#ffffff" stroke="none" x="424" y="40" width="118" height="39"></rect></g><g transform="translate(-30,10) scale(1,1)"><path fill="none" stroke="#000000" d="M 424 40 L 542 40 L 542 79 L 424 79 L 424 40 Z Z" stroke-miterlimit="10"></path></g><g transform="translate(-30,10) scale(1,1)"><g><path fill="none" stroke="none"></path><text fill="#000000" stroke="none" font-family="Arial" font-size="13px" font-style="normal" font-weight="bold" text-decoration="none" x="438.5" y="59.5">ExamController</text></g></g><g transform="translate(-30,10) scale(1,1)"><path fill="none" stroke="#000000" d="M 484.5 80 L 484.5 326" stroke-miterlimit="10" stroke-dasharray="3"></path></g><g transform="translate(-30,10) scale(1,1)"><rect fill="#C0C0C0" stroke="none" x="863" y="47" width="103" height="39" opacity="0.2"></rect></g><g transform="translate(-30,10) scale(1,1)"><rect fill="#ffffff" stroke="none" x="856" y="40" width="103" height="39"></rect></g><g transform="translate(-30,10) scale(1,1)"><path fill="none" stroke="#000000" d="M 856 40 L 959 40 L 959 79 L 856 79 L 856 40 Z Z" stroke-miterlimit="10"></path></g><g transform="translate(-30,10) scale(1,1)"><g><path fill="none" stroke="none"></path><text fill="#000000" stroke="none" font-family="Arial" font-size="13px" font-style="normal" font-weight="normal" text-decoration="none" x="876" y="57.5">«interface»</text></g></g><g transform="translate(-30,10) scale(1,1)"><g><path fill="none" stroke="none"></path><text fill="#000000" stroke="none" font-family="Arial" font-size="13px" font-style="normal" font-weight="bold" text-decoration="none" x="869.5" y="72.5">ExamService</text></g></g><g transform="translate(-30,10) scale(1,1)"><path fill="none" stroke="#000000" d="M 908.5 80 L 908.5 262" stroke-miterlimit="10" stroke-dasharray="3"></path></g><g transform="translate(-30,10) scale(1,1)"><path fill="#ffffff" stroke="none" d="M 89.5709090909091 47.3 C 89.5709090909091 43.82060576 92.44931081309092 41 96 41 C 99.55068918690908 41 102.4290909090909 43.82060576 102.4290909090909 47.3 C 102.4290909090909 50.779394239999995 99.55068918690908 53.6 96 53.6 C 92.44931081309092 53.6 89.5709090909091 50.779394239999995 89.5709090909091 47.3 Z"></path></g><g transform="translate(-30,10) scale(1,1)"><path fill="none" stroke="#000000" d="M 89.5709090909091 47.3 C 89.5709090909091 43.82060576 92.44931081309092 41 96 41 C 99.55068918690908 41 102.4290909090909 43.82060576 102.4290909090909 47.3 C 102.4290909090909 50.779394239999995 99.55068918690908 53.6 96 53.6 C 92.44931081309092 53.6 89.5709090909091 50.779394239999995 89.5709090909091 47.3 Z" stroke-miterlimit="10"></path></g><g transform="translate(-30,10) scale(1,1)"><path fill="none" stroke="#000000" d="M 96 53.6 L 96 66.4" stroke-miterlimit="10"></path></g><g transform="translate(-30,10) scale(1,1)"><path fill="none" stroke="#000000" d="M 89.19272727272727 58.4 L 102.80727272727273 58.4" stroke-miterlimit="10"></path></g><g transform="translate(-30,10) scale(1,1)"><path fill="none" stroke="#000000" d="M 96 66.4 L 86.54545454545455 79" stroke-miterlimit="10"></path></g><g transform="translate(-30,10) scale(1,1)"><path fill="none" stroke="#000000" d="M 96 66.4 L 105.45454545454545 79" stroke-miterlimit="10"></path></g><g transform="translate(-30,10) scale(1,1)"><g><path fill="none" stroke="none"></path><text fill="#000000" stroke="none" font-family="Arial" font-size="13px" font-style="normal" font-weight="bold" text-decoration="none" x="78.5" y="99.5">: User</text></g></g><g transform="translate(-30,10) scale(1,1)"><path fill="none" stroke="#000000" d="M 97.5 105 L 97.5 294" stroke-miterlimit="10" stroke-dasharray="3"></path></g><g transform="translate(-30,10) scale(1,1)"><rect fill="#C0C0C0" stroke="none" x="743" y="47" width="78" height="39" opacity="0.2"></rect></g><g transform="translate(-30,10) scale(1,1)"><rect fill="#ffffff" stroke="none" x="736" y="40" width="78" height="39"></rect></g><g transform="translate(-30,10) scale(1,1)"><path fill="none" stroke="#000000" d="M 736 40 L 814 40 L 814 79 L 736 79 L 736 40 Z Z" stroke-miterlimit="10"></path></g><g transform="translate(-30,10) scale(1,1)"><g><path fill="none" stroke="none"></path><text fill="#000000" stroke="none" font-family="Arial" font-size="13px" font-style="normal" font-weight="bold" text-decoration="none" x="749" y="59.5">Renderer</text></g></g><g transform="translate(-30,10) scale(1,1)"><path fill="none" stroke="#000000" d="M 776.5 80 L 776.5 326" stroke-miterlimit="10" stroke-dasharray="3"></path></g><g transform="translate(-30,10) scale(1,1)"><rect fill="#C0C0C0" stroke="none" x="1007" y="47" width="103" height="39" opacity="0.2"></rect></g><g transform="translate(-30,10) scale(1,1)"><rect fill="#ffffff" stroke="none" x="1000" y="40" width="103" height="39"></rect></g><g transform="translate(-30,10) scale(1,1)"><path fill="none" stroke="#000000" d="M 1000 40 L 1103 40 L 1103 79 L 1000 79 L 1000 40 Z Z" stroke-miterlimit="10"></path></g><g transform="translate(-30,10) scale(1,1)"><g><path fill="none" stroke="none"></path><text fill="#000000" stroke="none" font-family="Arial" font-size="13px" font-style="normal" font-weight="normal" text-decoration="none" x="1020" y="57.5">«interface»</text></g></g><g transform="translate(-30,10) scale(1,1)"><g><path fill="none" stroke="none"></path><text fill="#000000" stroke="none" font-family="Arial" font-size="13px" font-style="normal" font-weight="bold" text-decoration="none" x="1023" y="72.5">ExamDao</text></g></g><g transform="translate(-30,10) scale(1,1)"><path fill="none" stroke="#000000" d="M 1052.5 80 L 1052.5 246" stroke-miterlimit="10" stroke-dasharray="3"></path></g><g transform="translate(-30,10) scale(1,1)"><path fill="none" stroke="#000000" d="M 97 112 L 285 112" stroke-miterlimit="10"></path></g><g transform="translate(-30,10) scale(1,1)"><path fill="#000000" stroke="none" d="M 274.83732514237585 116.20951775601598 L 285 112 L 274.83732514237585 107.79048224398402"></path></g><g transform="translate(-30,10) scale(1,1)"><path fill="none" stroke="#000000" d="M 274.83732514237585 116.20951775601598 L 285 112 L 274.83732514237585 107.79048224398402 L 274.83732514237585 116.20951775601598" stroke-miterlimit="10"></path></g><g transform="translate(-30,10) scale(1,1)"><g><path fill="none" stroke="none"></path><text fill="#000000" stroke="none" font-family="Arial" font-size="13px" font-style="normal" font-weight="normal" text-decoration="none" x="132" y="99.5">1 : Prüfung öffnen()</text></g></g><g transform="translate(-30,10) scale(1,1)"><rect fill="#ffffff" stroke="none" x="285" y="112" width="13" height="184"></rect></g><g transform="translate(-30,10) scale(1,1)"><path fill="none" stroke="#000000" d="M 285 112 L 298 112 L 298 296 L 285 296 L 285 112 Z Z" stroke-miterlimit="10"></path></g><g transform="translate(-30,10) scale(1,1)"><path fill="none" stroke="#000000" d="M 298 120 L 477 120" stroke-miterlimit="10"></path></g><g transform="translate(-30,10) scale(1,1)"><path fill="#000000" stroke="none" d="M 466.83732514237585 124.20951775601598 L 477 120 L 466.83732514237585 115.79048224398402"></path></g><g transform="translate(-30,10) scale(1,1)"><path fill="none" stroke="#000000" d="M 466.83732514237585 124.20951775601598 L 477 120 L 466.83732514237585 115.79048224398402 L 466.83732514237585 124.20951775601598" stroke-miterlimit="10"></path></g><g transform="translate(-30,10) scale(1,1)"><g><path fill="none" stroke="none"></path><text fill="#000000" stroke="none" font-family="Arial" font-size="13px" font-style="normal" font-weight="normal" text-decoration="none" x="324" y="115.5">2 : GET /exams/:id</text></g></g><g transform="translate(-30,10) scale(1,1)"><rect fill="#ffffff" stroke="none" x="477" y="120" width="13" height="179"></rect></g><g transform="translate(-30,10) scale(1,1)"><path fill="none" stroke="#000000" d="M 477 120 L 490 120 L 490 299 L 477 299 L 477 120 Z Z" stroke-miterlimit="10"></path></g><g transform="translate(-30,10) scale(1,1)"><path fill="none" stroke="#000000" d="M 490 136 L 520 136 L 520 156 L 497 156" stroke-miterlimit="10"></path></g><g transform="translate(-30,10) scale(1,1)"><path fill="#000000" stroke="none" d="M 507.16267485762415 151.790482243984 L 497 156 L 507.16267485762415 160.209517756016"></path></g><g transform="translate(-30,10) scale(1,1)"><path fill="none" stroke="#000000" d="M 507.16267485762415 151.790482243984 L 497 156 L 507.16267485762415 160.209517756016 L 507.16267485762415 151.790482243984" stroke-miterlimit="10"></path></g><g transform="translate(-30,10) scale(1,1)"><g><path fill="none" stroke="none"></path><text fill="#000000" stroke="none" font-family="Arial" font-size="13px" font-style="normal" font-weight="normal" text-decoration="none" x="534.5" y="151.5">3 : displayExam()</text></g></g><g transform="translate(-30,10) scale(1,1)"><rect fill="#ffffff" stroke="none" x="484" y="156" width="13" height="140"></rect></g><g transform="translate(-30,10) scale(1,1)"><path fill="none" stroke="#000000" d="M 484 156 L 497 156 L 497 296 L 484 296 L 484 156 Z Z" stroke-miterlimit="10"></path></g><g transform="translate(-30,10) scale(1,1)"><path fill="none" stroke="#000000" d="M 497 168 L 901 168" stroke-miterlimit="10"></path></g><g transform="translate(-30,10) scale(1,1)"><path fill="#000000" stroke="none" d="M 890.8373251423759 172.209517756016 L 901 168 L 890.8373251423758 163.790482243984"></path></g><g transform="translate(-30,10) scale(1,1)"><path fill="none" stroke="#000000" d="M 890.8373251423759 172.209517756016 L 901 168 L 890.8373251423758 163.790482243984 L 890.8373251423759 172.209517756016" stroke-miterlimit="10"></path></g><g transform="translate(-30,10) scale(1,1)"><g><path fill="none" stroke="none"></path><text fill="#000000" stroke="none" font-family="Arial" font-size="13px" font-style="normal" font-weight="normal" text-decoration="none" x="654.5" y="164.5">4 : getExam(id)</text></g></g><g transform="translate(-30,10) scale(1,1)"><rect fill="#ffffff" stroke="none" x="901" y="168" width="13" height="56"></rect></g><g transform="translate(-30,10) scale(1,1)"><path fill="none" stroke="#000000" d="M 901 168 L 914 168 L 914 224 L 901 224 L 901 168 Z Z" stroke-miterlimit="10"></path></g><g transform="translate(-30,10) scale(1,1)"><path fill="none" stroke="#000000" d="M 914 168 L 1045 168" stroke-miterlimit="10"></path></g><g transform="translate(-30,10) scale(1,1)"><path fill="#000000" stroke="none" d="M 1034.837325142376 172.209517756016 L 1045 168 L 1034.837325142376 163.790482243984"></path></g><g transform="translate(-30,10) scale(1,1)"><path fill="none" stroke="#000000" d="M 1034.837325142376 172.209517756016 L 1045 168 L 1034.837325142376 163.790482243984 L 1034.837325142376 172.209517756016" stroke-miterlimit="10"></path></g><g transform="translate(-30,10) scale(1,1)"><g><path fill="none" stroke="none"></path><text fill="#000000" stroke="none" font-family="Arial" font-size="13px" font-style="normal" font-weight="normal" text-decoration="none" x="934.5" y="164.5">5 : getExam(id)</text></g></g><g transform="translate(-30,10) scale(1,1)"><rect fill="#ffffff" stroke="none" x="1045" y="168" width="13" height="48"></rect></g><g transform="translate(-30,10) scale(1,1)"><path fill="none" stroke="#000000" d="M 1045 168 L 1058 168 L 1058 216 L 1045 216 L 1045 168 Z Z" stroke-miterlimit="10"></path></g><g transform="translate(-30,10) scale(1,1)"><path fill="none" stroke="#000000" d="M 1052 216 L 914 216" stroke-miterlimit="10" stroke-dasharray="3"></path></g><g transform="translate(-30,10) scale(1,1)"><path fill="none" stroke="#000000" d="M 924.1626748576241 211.790482243984 L 914 216 L 924.1626748576241 220.209517756016" stroke-miterlimit="10"></path></g><g transform="translate(-30,10) scale(1,1)"><g><path fill="none" stroke="none"></path><text fill="#000000" stroke="none" font-family="Arial" font-size="13px" font-style="normal" font-weight="normal" text-decoration="none" x="972.5" y="232.5">6 : </text></g></g><g transform="translate(-30,10) scale(1,1)"><path fill="none" stroke="#000000" d="M 908 224 L 497 224" stroke-miterlimit="10" stroke-dasharray="3"></path></g><g transform="translate(-30,10) scale(1,1)"><path fill="none" stroke="#000000" d="M 507.16267485762415 219.790482243984 L 497 224 L 507.16267485762415 228.209517756016" stroke-miterlimit="10"></path></g><g transform="translate(-30,10) scale(1,1)"><g><path fill="none" stroke="none"></path><text fill="#000000" stroke="none" font-family="Arial" font-size="13px" font-style="normal" font-weight="normal" text-decoration="none" x="691.5" y="240.5">7 : </text></g></g><g transform="translate(-30,10) scale(1,1)"><path fill="none" stroke="#000000" d="M 497 264 L 769 264" stroke-miterlimit="10"></path></g><g transform="translate(-30,10) scale(1,1)"><path fill="#000000" stroke="none" d="M 758.8373251423759 268.209517756016 L 769 264 L 758.8373251423758 259.790482243984"></path></g><g transform="translate(-30,10) scale(1,1)"><path fill="none" stroke="#000000" d="M 758.8373251423759 268.209517756016 L 769 264 L 758.8373251423758 259.790482243984 L 758.8373251423759 268.209517756016" stroke-miterlimit="10"></path></g><g transform="translate(-30,10) scale(1,1)"><g><path fill="none" stroke="none"></path><text fill="#000000" stroke="none" font-family="Arial" font-size="13px" font-style="normal" font-weight="normal" text-decoration="none" x="583.5" y="260.5">8 : render(model)</text></g></g><g transform="translate(-30,10) scale(1,1)"><rect fill="#ffffff" stroke="none" x="769" y="264" width="13" height="28"></rect></g><g transform="translate(-30,10) scale(1,1)"><path fill="none" stroke="#000000" d="M 769 264 L 782 264 L 782 292 L 769 292 L 769 264 Z Z" stroke-miterlimit="10"></path></g><g transform="translate(-30,10) scale(1,1)"><path fill="none" stroke="#000000" d="M 769 288 L 497 288" stroke-miterlimit="10" stroke-dasharray="3"></path></g><g transform="translate(-30,10) scale(1,1)"><path fill="none" stroke="#000000" d="M 507.16267485762415 283.790482243984 L 497 288 L 507.16267485762415 292.209517756016" stroke-miterlimit="10"></path></g><g transform="translate(-30,10) scale(1,1)"><g><path fill="none" stroke="none"></path><text fill="#000000" stroke="none" font-family="Arial" font-size="13px" font-style="normal" font-weight="normal" text-decoration="none" x="622" y="304.5">9 : </text></g></g><g transform="translate(-30,10) scale(1,1)"><path fill="none" stroke="#000000" d="M 477 296 L 292 296" stroke-miterlimit="10" stroke-dasharray="3"></path></g><g transform="translate(-30,10) scale(1,1)"><path fill="none" stroke="#000000" d="M 302.16267485762415 291.790482243984 L 292 296 L 302.16267485762415 300.209517756016" stroke-miterlimit="10"></path></g><g transform="translate(-30,10) scale(1,1)"><g><path fill="none" stroke="none"></path><text fill="#000000" stroke="none" font-family="Arial" font-size="13px" font-style="normal" font-weight="normal" text-decoration="none" x="369.5" y="312.5">10 : </text></g></g></g></svg>