<svg version="1.1" xmlns="http://www.w3.org/2000/svg" xmlns:xlink="http://www.w3.org/1999/xlink" width="572" height="468"><defs></defs><g><g transform="translate(-134,-198) scale(1,1)"><path fill="#C0C0C0" stroke="none" d="M 151 225 L 372 225 L 372 446 L 151 446" opacity="0.2"></path></g><g transform="translate(-134,-198) scale(1,1)"><path fill="#C0C0C0" stroke="none" d="M 151 225 L 161 215 L 382 215 L 372 225" opacity="0.2"></path></g><g transform="translate(-134,-198) scale(1,1)"><path fill="#C0C0C0" stroke="none" d="M 382 215 L 372 225 L 372 446 L 382 436" opacity="0.2"></path></g><g transform="translate(-134,-198) scale(1,1)"><path fill="#ffffff" stroke="none" d="M 144 218 L 365 218 L 365 439 L 144 439"></path></g><g transform="translate(-134,-198) scale(1,1)"><path fill="#ffffff" stroke="none" d="M 144 218 L 154 208 L 375 208 L 365 218"></path></g><g transform="translate(-134,-198) scale(1,1)"><path fill="#ffffff" stroke="none" d="M 375 208 L 365 218 L 365 439 L 375 429"></path></g><g transform="translate(-134,-198) scale(1,1)"><path fill="none" stroke="#000000" d="M 144 218 L 365 218 L 365 439 L 144 439 L 144 218" stroke-miterlimit="10"></path></g><g transform="translate(-134,-198) scale(1,1)"><path fill="none" stroke="#000000" d="M 144 218 L 154 208 L 375 208 L 365 218 L 144 218" stroke-miterlimit="10"></path></g><g transform="translate(-134,-198) scale(1,1)"><path fill="none" stroke="#000000" d="M 375 208 L 365 218 L 365 439 L 375 429 L 375 208" stroke-miterlimit="10"></path></g><g transform="translate(-134,-198) scale(1,1)"><g><path fill="none" stroke="none"></path><text fill="#000000" stroke="none" font-family="Arial" font-size="13px" font-style="normal" font-weight="bold" text-decoration="none" x="223.5" y="237.5">Gitlab.com</text></g></g><g transform="translate(-134,-198) scale(1,1)"><path fill="#C0C0C0" stroke="none" d="M 151 481 L 684 481 L 684 662 L 151 662" opacity="0.2"></path></g><g transform="translate(-134,-198) scale(1,1)"><path fill="#C0C0C0" stroke="none" d="M 151 481 L 161 471 L 694 471 L 684 481" opacity="0.2"></path></g><g transform="translate(-134,-198) scale(1,1)"><path fill="#C0C0C0" stroke="none" d="M 694 471 L 684 481 L 684 662 L 694 652" opacity="0.2"></path></g><g transform="translate(-134,-198) scale(1,1)"><path fill="#ffffff" stroke="none" d="M 144 474 L 677 474 L 677 655 L 144 655"></path></g><g transform="translate(-134,-198) scale(1,1)"><path fill="#ffffff" stroke="none" d="M 144 474 L 154 464 L 687 464 L 677 474"></path></g><g transform="translate(-134,-198) scale(1,1)"><path fill="#ffffff" stroke="none" d="M 687 464 L 677 474 L 677 655 L 687 645"></path></g><g transform="translate(-134,-198) scale(1,1)"><path fill="none" stroke="#000000" d="M 144 474 L 677 474 L 677 655 L 144 655 L 144 474" stroke-miterlimit="10"></path></g><g transform="translate(-134,-198) scale(1,1)"><path fill="none" stroke="#000000" d="M 144 474 L 154 464 L 687 464 L 677 474 L 144 474" stroke-miterlimit="10"></path></g><g transform="translate(-134,-198) scale(1,1)"><path fill="none" stroke="#000000" d="M 687 464 L 677 474 L 677 655 L 687 645 L 687 464" stroke-miterlimit="10"></path></g><g transform="translate(-134,-198) scale(1,1)"><g><path fill="none" stroke="none"></path><text fill="#000000" stroke="none" font-family="Arial" font-size="13px" font-style="normal" font-weight="bold" text-decoration="none" x="344.5" y="493.5">Workstation Entwickler</text></g></g><g transform="translate(-134,-198) scale(1,1)"><path fill="#C0C0C0" stroke="none" d="M 399 225 L 692 225 L 692 374 L 399 374" opacity="0.2"></path></g><g transform="translate(-134,-198) scale(1,1)"><path fill="#C0C0C0" stroke="none" d="M 399 225 L 409 215 L 702 215 L 692 225" opacity="0.2"></path></g><g transform="translate(-134,-198) scale(1,1)"><path fill="#C0C0C0" stroke="none" d="M 702 215 L 692 225 L 692 374 L 702 364" opacity="0.2"></path></g><g transform="translate(-134,-198) scale(1,1)"><path fill="#ffffff" stroke="none" d="M 392 218 L 685 218 L 685 367 L 392 367"></path></g><g transform="translate(-134,-198) scale(1,1)"><path fill="#ffffff" stroke="none" d="M 392 218 L 402 208 L 695 208 L 685 218"></path></g><g transform="translate(-134,-198) scale(1,1)"><path fill="#ffffff" stroke="none" d="M 695 208 L 685 218 L 685 367 L 695 357"></path></g><g transform="translate(-134,-198) scale(1,1)"><path fill="none" stroke="#000000" d="M 392 218 L 685 218 L 685 367 L 392 367 L 392 218" stroke-miterlimit="10"></path></g><g transform="translate(-134,-198) scale(1,1)"><path fill="none" stroke="#000000" d="M 392 218 L 402 208 L 695 208 L 685 218 L 392 218" stroke-miterlimit="10"></path></g><g transform="translate(-134,-198) scale(1,1)"><path fill="none" stroke="#000000" d="M 695 208 L 685 218 L 685 367 L 695 357 L 695 208" stroke-miterlimit="10"></path></g><g transform="translate(-134,-198) scale(1,1)"><g><path fill="none" stroke="none"></path><text fill="#000000" stroke="none" font-family="Arial" font-size="13px" font-style="normal" font-weight="bold" text-decoration="none" x="497" y="237.5">Projekteserver</text></g></g><g transform="translate(-134,-198) scale(1,1)"><path fill="#C0C0C0" stroke="none" d="M 167 265 L 340 265 L 340 298 L 167 298" opacity="0.2"></path></g><g transform="translate(-134,-198) scale(1,1)"><path fill="#C0C0C0" stroke="none" d="M 167 265 L 177 255 L 350 255 L 340 265" opacity="0.2"></path></g><g transform="translate(-134,-198) scale(1,1)"><path fill="#C0C0C0" stroke="none" d="M 350 255 L 340 265 L 340 298 L 350 288" opacity="0.2"></path></g><g transform="translate(-134,-198) scale(1,1)"><path fill="#ffffff" stroke="none" d="M 160 258 L 333 258 L 333 291 L 160 291"></path></g><g transform="translate(-134,-198) scale(1,1)"><path fill="#ffffff" stroke="none" d="M 160 258 L 170 248 L 343 248 L 333 258"></path></g><g transform="translate(-134,-198) scale(1,1)"><path fill="#ffffff" stroke="none" d="M 343 248 L 333 258 L 333 291 L 343 281"></path></g><g transform="translate(-134,-198) scale(1,1)"><path fill="none" stroke="#000000" d="M 160 258 L 333 258 L 333 291 L 160 291 L 160 258" stroke-miterlimit="10"></path></g><g transform="translate(-134,-198) scale(1,1)"><path fill="none" stroke="#000000" d="M 160 258 L 170 248 L 343 248 L 333 258 L 160 258" stroke-miterlimit="10"></path></g><g transform="translate(-134,-198) scale(1,1)"><path fill="none" stroke="#000000" d="M 343 248 L 333 258 L 333 291 L 343 281 L 343 248" stroke-miterlimit="10"></path></g><g transform="translate(-134,-198) scale(1,1)"><g><path fill="none" stroke="none"></path><text fill="#000000" stroke="none" font-family="Arial" font-size="13px" font-style="normal" font-weight="bold" text-decoration="none" x="221.5" y="277.5">Gitlab CI</text></g></g><g transform="translate(-134,-198) scale(1,1)"><path fill="#C0C0C0" stroke="none" d="M 167 329 L 334 329 L 334 362 L 167 362" opacity="0.2"></path></g><g transform="translate(-134,-198) scale(1,1)"><path fill="#C0C0C0" stroke="none" d="M 167 329 L 177 319 L 344 319 L 334 329" opacity="0.2"></path></g><g transform="translate(-134,-198) scale(1,1)"><path fill="#C0C0C0" stroke="none" d="M 344 319 L 334 329 L 334 362 L 344 352" opacity="0.2"></path></g><g transform="translate(-134,-198) scale(1,1)"><path fill="#ffffff" stroke="none" d="M 160 322 L 327 322 L 327 355 L 160 355"></path></g><g transform="translate(-134,-198) scale(1,1)"><path fill="#ffffff" stroke="none" d="M 160 322 L 170 312 L 337 312 L 327 322"></path></g><g transform="translate(-134,-198) scale(1,1)"><path fill="#ffffff" stroke="none" d="M 337 312 L 327 322 L 327 355 L 337 345"></path></g><g transform="translate(-134,-198) scale(1,1)"><path fill="none" stroke="#000000" d="M 160 322 L 327 322 L 327 355 L 160 355 L 160 322" stroke-miterlimit="10"></path></g><g transform="translate(-134,-198) scale(1,1)"><path fill="none" stroke="#000000" d="M 160 322 L 170 312 L 337 312 L 327 322 L 160 322" stroke-miterlimit="10"></path></g><g transform="translate(-134,-198) scale(1,1)"><path fill="none" stroke="#000000" d="M 337 312 L 327 322 L 327 355 L 337 345 L 337 312" stroke-miterlimit="10"></path></g><g transform="translate(-134,-198) scale(1,1)"><g><path fill="none" stroke="none"></path><text fill="#000000" stroke="none" font-family="Arial" font-size="13px" font-style="normal" font-weight="bold" text-decoration="none" x="185" y="341.5">Gitlab Issue Tracker</text></g></g><g transform="translate(-134,-198) scale(1,1)"><path fill="#C0C0C0" stroke="none" d="M 167 393 L 332 393 L 332 426 L 167 426" opacity="0.2"></path></g><g transform="translate(-134,-198) scale(1,1)"><path fill="#C0C0C0" stroke="none" d="M 167 393 L 177 383 L 342 383 L 332 393" opacity="0.2"></path></g><g transform="translate(-134,-198) scale(1,1)"><path fill="#C0C0C0" stroke="none" d="M 342 383 L 332 393 L 332 426 L 342 416" opacity="0.2"></path></g><g transform="translate(-134,-198) scale(1,1)"><path fill="#ffffff" stroke="none" d="M 160 386 L 325 386 L 325 419 L 160 419"></path></g><g transform="translate(-134,-198) scale(1,1)"><path fill="#ffffff" stroke="none" d="M 160 386 L 170 376 L 335 376 L 325 386"></path></g><g transform="translate(-134,-198) scale(1,1)"><path fill="#ffffff" stroke="none" d="M 335 376 L 325 386 L 325 419 L 335 409"></path></g><g transform="translate(-134,-198) scale(1,1)"><path fill="none" stroke="#000000" d="M 160 386 L 325 386 L 325 419 L 160 419 L 160 386" stroke-miterlimit="10"></path></g><g transform="translate(-134,-198) scale(1,1)"><path fill="none" stroke="#000000" d="M 160 386 L 170 376 L 335 376 L 325 386 L 160 386" stroke-miterlimit="10"></path></g><g transform="translate(-134,-198) scale(1,1)"><path fill="none" stroke="#000000" d="M 335 376 L 325 386 L 325 419 L 335 409 L 335 376" stroke-miterlimit="10"></path></g><g transform="translate(-134,-198) scale(1,1)"><g><path fill="none" stroke="none"></path><text fill="#000000" stroke="none" font-family="Arial" font-size="13px" font-style="normal" font-weight="bold" text-decoration="none" x="201.5" y="405.5">Git Repository</text></g></g><g transform="translate(-134,-198) scale(1,1)"><path fill="#C0C0C0" stroke="none" d="M 415 265 L 644 265 L 644 350 L 415 350" opacity="0.2"></path></g><g transform="translate(-134,-198) scale(1,1)"><path fill="#C0C0C0" stroke="none" d="M 415 265 L 425 255 L 654 255 L 644 265" opacity="0.2"></path></g><g transform="translate(-134,-198) scale(1,1)"><path fill="#C0C0C0" stroke="none" d="M 654 255 L 644 265 L 644 350 L 654 340" opacity="0.2"></path></g><g transform="translate(-134,-198) scale(1,1)"><path fill="#ffffff" stroke="none" d="M 408 258 L 637 258 L 637 343 L 408 343"></path></g><g transform="translate(-134,-198) scale(1,1)"><path fill="#ffffff" stroke="none" d="M 408 258 L 418 248 L 647 248 L 637 258"></path></g><g transform="translate(-134,-198) scale(1,1)"><path fill="#ffffff" stroke="none" d="M 647 248 L 637 258 L 637 343 L 647 333"></path></g><g transform="translate(-134,-198) scale(1,1)"><path fill="none" stroke="#000000" d="M 408 258 L 637 258 L 637 343 L 408 343 L 408 258" stroke-miterlimit="10"></path></g><g transform="translate(-134,-198) scale(1,1)"><path fill="none" stroke="#000000" d="M 408 258 L 418 248 L 647 248 L 637 258 L 408 258" stroke-miterlimit="10"></path></g><g transform="translate(-134,-198) scale(1,1)"><path fill="none" stroke="#000000" d="M 647 248 L 637 258 L 637 343 L 647 333 L 647 248" stroke-miterlimit="10"></path></g><g transform="translate(-134,-198) scale(1,1)"><g><path fill="none" stroke="none"></path><text fill="#000000" stroke="none" font-family="Arial" font-size="13px" font-style="normal" font-weight="bold" text-decoration="none" x="502.5" y="277.5">Docker</text></g></g><g transform="translate(-134,-198) scale(1,1)"><path fill="#C0C0C0" stroke="none" d="M 423 305 L 501 305 L 501 338 L 423 338" opacity="0.2"></path></g><g transform="translate(-134,-198) scale(1,1)"><path fill="#C0C0C0" stroke="none" d="M 423 305 L 433 295 L 511 295 L 501 305" opacity="0.2"></path></g><g transform="translate(-134,-198) scale(1,1)"><path fill="#C0C0C0" stroke="none" d="M 511 295 L 501 305 L 501 338 L 511 328" opacity="0.2"></path></g><g transform="translate(-134,-198) scale(1,1)"><path fill="#ffffff" stroke="none" d="M 416 298 L 494 298 L 494 331 L 416 331"></path></g><g transform="translate(-134,-198) scale(1,1)"><path fill="#ffffff" stroke="none" d="M 416 298 L 426 288 L 504 288 L 494 298"></path></g><g transform="translate(-134,-198) scale(1,1)"><path fill="#ffffff" stroke="none" d="M 504 288 L 494 298 L 494 331 L 504 321"></path></g><g transform="translate(-134,-198) scale(1,1)"><path fill="none" stroke="#000000" d="M 416 298 L 494 298 L 494 331 L 416 331 L 416 298" stroke-miterlimit="10"></path></g><g transform="translate(-134,-198) scale(1,1)"><path fill="none" stroke="#000000" d="M 416 298 L 426 288 L 504 288 L 494 298 L 416 298" stroke-miterlimit="10"></path></g><g transform="translate(-134,-198) scale(1,1)"><path fill="none" stroke="#000000" d="M 504 288 L 494 298 L 494 331 L 504 321 L 504 288" stroke-miterlimit="10"></path></g><g transform="translate(-134,-198) scale(1,1)"><g><path fill="none" stroke="none"></path><text fill="#000000" stroke="none" font-family="Arial" font-size="13px" font-style="normal" font-weight="bold" text-decoration="none" x="423" y="317.5">SonarQube</text></g></g><g transform="translate(-134,-198) scale(1,1)"><path fill="#C0C0C0" stroke="none" d="M 519 305 L 620 305 L 620 338 L 519 338" opacity="0.2"></path></g><g transform="translate(-134,-198) scale(1,1)"><path fill="#C0C0C0" stroke="none" d="M 519 305 L 529 295 L 630 295 L 620 305" opacity="0.2"></path></g><g transform="translate(-134,-198) scale(1,1)"><path fill="#C0C0C0" stroke="none" d="M 630 295 L 620 305 L 620 338 L 630 328" opacity="0.2"></path></g><g transform="translate(-134,-198) scale(1,1)"><path fill="#ffffff" stroke="none" d="M 512 298 L 613 298 L 613 331 L 512 331"></path></g><g transform="translate(-134,-198) scale(1,1)"><path fill="#ffffff" stroke="none" d="M 512 298 L 522 288 L 623 288 L 613 298"></path></g><g transform="translate(-134,-198) scale(1,1)"><path fill="#ffffff" stroke="none" d="M 623 288 L 613 298 L 613 331 L 623 321"></path></g><g transform="translate(-134,-198) scale(1,1)"><path fill="none" stroke="#000000" d="M 512 298 L 613 298 L 613 331 L 512 331 L 512 298" stroke-miterlimit="10"></path></g><g transform="translate(-134,-198) scale(1,1)"><path fill="none" stroke="#000000" d="M 512 298 L 522 288 L 623 288 L 613 298 L 512 298" stroke-miterlimit="10"></path></g><g transform="translate(-134,-198) scale(1,1)"><path fill="none" stroke="#000000" d="M 623 288 L 613 298 L 613 331 L 623 321 L 623 288" stroke-miterlimit="10"></path></g><g transform="translate(-134,-198) scale(1,1)"><g><path fill="none" stroke="none"></path><text fill="#000000" stroke="none" font-family="Arial" font-size="13px" font-style="normal" font-weight="bold" text-decoration="none" x="522.5" y="317.5">Demo Instanz</text></g></g><g transform="translate(-134,-198) scale(1,1)"><path fill="#C0C0C0" stroke="none" d="M 551 401 L 681 401 L 681 434 L 551 434" opacity="0.2"></path></g><g transform="translate(-134,-198) scale(1,1)"><path fill="#C0C0C0" stroke="none" d="M 551 401 L 561 391 L 691 391 L 681 401" opacity="0.2"></path></g><g transform="translate(-134,-198) scale(1,1)"><path fill="#C0C0C0" stroke="none" d="M 691 391 L 681 401 L 681 434 L 691 424" opacity="0.2"></path></g><g transform="translate(-134,-198) scale(1,1)"><path fill="#ffffff" stroke="none" d="M 544 394 L 674 394 L 674 427 L 544 427"></path></g><g transform="translate(-134,-198) scale(1,1)"><path fill="#ffffff" stroke="none" d="M 544 394 L 554 384 L 684 384 L 674 394"></path></g><g transform="translate(-134,-198) scale(1,1)"><path fill="#ffffff" stroke="none" d="M 684 384 L 674 394 L 674 427 L 684 417"></path></g><g transform="translate(-134,-198) scale(1,1)"><path fill="none" stroke="#000000" d="M 544 394 L 674 394 L 674 427 L 544 427 L 544 394" stroke-miterlimit="10"></path></g><g transform="translate(-134,-198) scale(1,1)"><path fill="none" stroke="#000000" d="M 544 394 L 554 384 L 684 384 L 674 394 L 544 394" stroke-miterlimit="10"></path></g><g transform="translate(-134,-198) scale(1,1)"><path fill="none" stroke="#000000" d="M 684 384 L 674 394 L 674 427 L 684 417 L 684 384" stroke-miterlimit="10"></path></g><g transform="translate(-134,-198) scale(1,1)"><g><path fill="none" stroke="none"></path><text fill="#000000" stroke="none" font-family="Arial" font-size="13px" font-style="normal" font-weight="bold" text-decoration="none" x="554" y="413.5">paper.dropbox.com</text></g></g><g transform="translate(-134,-198) scale(1,1)"><path fill="#C0C0C0" stroke="none" d="M 399 401 L 524 401 L 524 434 L 399 434" opacity="0.2"></path></g><g transform="translate(-134,-198) scale(1,1)"><path fill="#C0C0C0" stroke="none" d="M 399 401 L 409 391 L 534 391 L 524 401" opacity="0.2"></path></g><g transform="translate(-134,-198) scale(1,1)"><path fill="#C0C0C0" stroke="none" d="M 534 391 L 524 401 L 524 434 L 534 424" opacity="0.2"></path></g><g transform="translate(-134,-198) scale(1,1)"><path fill="#ffffff" stroke="none" d="M 392 394 L 517 394 L 517 427 L 392 427"></path></g><g transform="translate(-134,-198) scale(1,1)"><path fill="#ffffff" stroke="none" d="M 392 394 L 402 384 L 527 384 L 517 394"></path></g><g transform="translate(-134,-198) scale(1,1)"><path fill="#ffffff" stroke="none" d="M 527 384 L 517 394 L 517 427 L 527 417"></path></g><g transform="translate(-134,-198) scale(1,1)"><path fill="none" stroke="#000000" d="M 392 394 L 517 394 L 517 427 L 392 427 L 392 394" stroke-miterlimit="10"></path></g><g transform="translate(-134,-198) scale(1,1)"><path fill="none" stroke="#000000" d="M 392 394 L 402 384 L 527 384 L 517 394 L 392 394" stroke-miterlimit="10"></path></g><g transform="translate(-134,-198) scale(1,1)"><path fill="none" stroke="#000000" d="M 527 384 L 517 394 L 517 427 L 527 417 L 527 384" stroke-miterlimit="10"></path></g><g transform="translate(-134,-198) scale(1,1)"><g><path fill="none" stroke="none"></path><text fill="#000000" stroke="none" font-family="Arial" font-size="13px" font-style="normal" font-weight="bold" text-decoration="none" x="404.5" y="413.5">MyBalsamiq.com</text></g></g><g transform="translate(-134,-198) scale(1,1)"><path fill="#C0C0C0" stroke="none" d="M 167 545 L 452 545 L 452 646 L 167 646" opacity="0.2"></path></g><g transform="translate(-134,-198) scale(1,1)"><path fill="#C0C0C0" stroke="none" d="M 167 545 L 177 535 L 462 535 L 452 545" opacity="0.2"></path></g><g transform="translate(-134,-198) scale(1,1)"><path fill="#C0C0C0" stroke="none" d="M 462 535 L 452 545 L 452 646 L 462 636" opacity="0.2"></path></g><g transform="translate(-134,-198) scale(1,1)"><path fill="#ffffff" stroke="none" d="M 160 538 L 445 538 L 445 639 L 160 639"></path></g><g transform="translate(-134,-198) scale(1,1)"><path fill="#ffffff" stroke="none" d="M 160 538 L 170 528 L 455 528 L 445 538"></path></g><g transform="translate(-134,-198) scale(1,1)"><path fill="#ffffff" stroke="none" d="M 455 528 L 445 538 L 445 639 L 455 629"></path></g><g transform="translate(-134,-198) scale(1,1)"><path fill="none" stroke="#000000" d="M 160 538 L 445 538 L 445 639 L 160 639 L 160 538" stroke-miterlimit="10"></path></g><g transform="translate(-134,-198) scale(1,1)"><path fill="none" stroke="#000000" d="M 160 538 L 170 528 L 455 528 L 445 538 L 160 538" stroke-miterlimit="10"></path></g><g transform="translate(-134,-198) scale(1,1)"><path fill="none" stroke="#000000" d="M 455 528 L 445 538 L 445 639 L 455 629 L 455 528" stroke-miterlimit="10"></path></g><g transform="translate(-134,-198) scale(1,1)"><g><path fill="none" stroke="none"></path><text fill="#000000" stroke="none" font-family="Arial" font-size="13px" font-style="normal" font-weight="bold" text-decoration="none" x="282.5" y="557.5">Docker</text></g></g><g transform="translate(-134,-198) scale(1,1)"><path fill="#C0C0C0" stroke="none" d="M 183 585 L 252 585 L 252 618 L 183 618" opacity="0.2"></path></g><g transform="translate(-134,-198) scale(1,1)"><path fill="#C0C0C0" stroke="none" d="M 183 585 L 193 575 L 262 575 L 252 585" opacity="0.2"></path></g><g transform="translate(-134,-198) scale(1,1)"><path fill="#C0C0C0" stroke="none" d="M 262 575 L 252 585 L 252 618 L 262 608" opacity="0.2"></path></g><g transform="translate(-134,-198) scale(1,1)"><path fill="#ffffff" stroke="none" d="M 176 578 L 245 578 L 245 611 L 176 611"></path></g><g transform="translate(-134,-198) scale(1,1)"><path fill="#ffffff" stroke="none" d="M 176 578 L 186 568 L 255 568 L 245 578"></path></g><g transform="translate(-134,-198) scale(1,1)"><path fill="#ffffff" stroke="none" d="M 255 568 L 245 578 L 245 611 L 255 601"></path></g><g transform="translate(-134,-198) scale(1,1)"><path fill="none" stroke="#000000" d="M 176 578 L 245 578 L 245 611 L 176 611 L 176 578" stroke-miterlimit="10"></path></g><g transform="translate(-134,-198) scale(1,1)"><path fill="none" stroke="#000000" d="M 176 578 L 186 568 L 255 568 L 245 578 L 176 578" stroke-miterlimit="10"></path></g><g transform="translate(-134,-198) scale(1,1)"><path fill="none" stroke="#000000" d="M 255 568 L 245 578 L 245 611 L 255 601 L 255 568" stroke-miterlimit="10"></path></g><g transform="translate(-134,-198) scale(1,1)"><g><path fill="none" stroke="none"></path><text fill="#000000" stroke="none" font-family="Arial" font-size="13px" font-style="normal" font-weight="bold" text-decoration="none" x="185" y="597.5">Postgres</text></g></g><g transform="translate(-134,-198) scale(1,1)"><path fill="#C0C0C0" stroke="none" d="M 359 585 L 413 585 L 413 618 L 359 618" opacity="0.2"></path></g><g transform="translate(-134,-198) scale(1,1)"><path fill="#C0C0C0" stroke="none" d="M 359 585 L 369 575 L 423 575 L 413 585" opacity="0.2"></path></g><g transform="translate(-134,-198) scale(1,1)"><path fill="#C0C0C0" stroke="none" d="M 423 575 L 413 585 L 413 618 L 423 608" opacity="0.2"></path></g><g transform="translate(-134,-198) scale(1,1)"><path fill="#ffffff" stroke="none" d="M 352 578 L 406 578 L 406 611 L 352 611"></path></g><g transform="translate(-134,-198) scale(1,1)"><path fill="#ffffff" stroke="none" d="M 352 578 L 362 568 L 416 568 L 406 578"></path></g><g transform="translate(-134,-198) scale(1,1)"><path fill="#ffffff" stroke="none" d="M 416 568 L 406 578 L 406 611 L 416 601"></path></g><g transform="translate(-134,-198) scale(1,1)"><path fill="none" stroke="#000000" d="M 352 578 L 406 578 L 406 611 L 352 611 L 352 578" stroke-miterlimit="10"></path></g><g transform="translate(-134,-198) scale(1,1)"><path fill="none" stroke="#000000" d="M 352 578 L 362 568 L 416 568 L 406 578 L 352 578" stroke-miterlimit="10"></path></g><g transform="translate(-134,-198) scale(1,1)"><path fill="none" stroke="#000000" d="M 416 568 L 406 578 L 406 611 L 416 601 L 416 568" stroke-miterlimit="10"></path></g><g transform="translate(-134,-198) scale(1,1)"><g><path fill="none" stroke="none"></path><text fill="#000000" stroke="none" font-family="Arial" font-size="13px" font-style="normal" font-weight="bold" text-decoration="none" x="357.5" y="597.5">Tomcat</text></g></g><g transform="translate(-134,-198) scale(1,1)"><path fill="#C0C0C0" stroke="none" d="M 487 553 L 541 553 L 541 586 L 487 586" opacity="0.2"></path></g><g transform="translate(-134,-198) scale(1,1)"><path fill="#C0C0C0" stroke="none" d="M 487 553 L 497 543 L 551 543 L 541 553" opacity="0.2"></path></g><g transform="translate(-134,-198) scale(1,1)"><path fill="#C0C0C0" stroke="none" d="M 551 543 L 541 553 L 541 586 L 551 576" opacity="0.2"></path></g><g transform="translate(-134,-198) scale(1,1)"><path fill="#ffffff" stroke="none" d="M 480 546 L 534 546 L 534 579 L 480 579"></path></g><g transform="translate(-134,-198) scale(1,1)"><path fill="#ffffff" stroke="none" d="M 480 546 L 490 536 L 544 536 L 534 546"></path></g><g transform="translate(-134,-198) scale(1,1)"><path fill="#ffffff" stroke="none" d="M 544 536 L 534 546 L 534 579 L 544 569"></path></g><g transform="translate(-134,-198) scale(1,1)"><path fill="none" stroke="#000000" d="M 480 546 L 534 546 L 534 579 L 480 579 L 480 546" stroke-miterlimit="10"></path></g><g transform="translate(-134,-198) scale(1,1)"><path fill="none" stroke="#000000" d="M 480 546 L 490 536 L 544 536 L 534 546 L 480 546" stroke-miterlimit="10"></path></g><g transform="translate(-134,-198) scale(1,1)"><path fill="none" stroke="#000000" d="M 544 536 L 534 546 L 534 579 L 544 569 L 544 536" stroke-miterlimit="10"></path></g><g transform="translate(-134,-198) scale(1,1)"><g><path fill="none" stroke="none"></path><text fill="#000000" stroke="none" font-family="Arial" font-size="13px" font-style="normal" font-weight="bold" text-decoration="none" x="486" y="565.5">Eclipse</text></g></g><g transform="translate(-134,-198) scale(1,1)"><path fill="#C0C0C0" stroke="none" d="M 567 609 L 619 609 L 619 642 L 567 642" opacity="0.2"></path></g><g transform="translate(-134,-198) scale(1,1)"><path fill="#C0C0C0" stroke="none" d="M 567 609 L 577 599 L 629 599 L 619 609" opacity="0.2"></path></g><g transform="translate(-134,-198) scale(1,1)"><path fill="#C0C0C0" stroke="none" d="M 629 599 L 619 609 L 619 642 L 629 632" opacity="0.2"></path></g><g transform="translate(-134,-198) scale(1,1)"><path fill="#ffffff" stroke="none" d="M 560 602 L 612 602 L 612 635 L 560 635"></path></g><g transform="translate(-134,-198) scale(1,1)"><path fill="#ffffff" stroke="none" d="M 560 602 L 570 592 L 622 592 L 612 602"></path></g><g transform="translate(-134,-198) scale(1,1)"><path fill="#ffffff" stroke="none" d="M 622 592 L 612 602 L 612 635 L 622 625"></path></g><g transform="translate(-134,-198) scale(1,1)"><path fill="none" stroke="#000000" d="M 560 602 L 612 602 L 612 635 L 560 635 L 560 602" stroke-miterlimit="10"></path></g><g transform="translate(-134,-198) scale(1,1)"><path fill="none" stroke="#000000" d="M 560 602 L 570 592 L 622 592 L 612 602 L 560 602" stroke-miterlimit="10"></path></g><g transform="translate(-134,-198) scale(1,1)"><path fill="none" stroke="#000000" d="M 622 592 L 612 602 L 612 635 L 622 625 L 622 592" stroke-miterlimit="10"></path></g><g transform="translate(-134,-198) scale(1,1)"><g><path fill="none" stroke="none"></path><text fill="#000000" stroke="none" font-family="Arial" font-size="13px" font-style="normal" font-weight="bold" text-decoration="none" x="566" y="621.5">Python</text></g></g><g transform="translate(-134,-198) scale(1,1)"><path fill="#C0C0C0" stroke="none" d="M 487 609 L 534 609 L 534 642 L 487 642" opacity="0.2"></path></g><g transform="translate(-134,-198) scale(1,1)"><path fill="#C0C0C0" stroke="none" d="M 487 609 L 497 599 L 544 599 L 534 609" opacity="0.2"></path></g><g transform="translate(-134,-198) scale(1,1)"><path fill="#C0C0C0" stroke="none" d="M 544 599 L 534 609 L 534 642 L 544 632" opacity="0.2"></path></g><g transform="translate(-134,-198) scale(1,1)"><path fill="#ffffff" stroke="none" d="M 480 602 L 527 602 L 527 635 L 480 635"></path></g><g transform="translate(-134,-198) scale(1,1)"><path fill="#ffffff" stroke="none" d="M 480 602 L 490 592 L 537 592 L 527 602"></path></g><g transform="translate(-134,-198) scale(1,1)"><path fill="#ffffff" stroke="none" d="M 537 592 L 527 602 L 527 635 L 537 625"></path></g><g transform="translate(-134,-198) scale(1,1)"><path fill="none" stroke="#000000" d="M 480 602 L 527 602 L 527 635 L 480 635 L 480 602" stroke-miterlimit="10"></path></g><g transform="translate(-134,-198) scale(1,1)"><path fill="none" stroke="#000000" d="M 480 602 L 490 592 L 537 592 L 527 602 L 480 602" stroke-miterlimit="10"></path></g><g transform="translate(-134,-198) scale(1,1)"><path fill="none" stroke="#000000" d="M 537 592 L 527 602 L 527 635 L 537 625 L 537 592" stroke-miterlimit="10"></path></g><g transform="translate(-134,-198) scale(1,1)"><g><path fill="none" stroke="none"></path><text fill="#000000" stroke="none" font-family="Arial" font-size="13px" font-style="normal" font-weight="bold" text-decoration="none" x="495.5" y="621.5">Git</text></g></g><g transform="translate(-134,-198) scale(1,1)"><path fill="#C0C0C0" stroke="none" d="M 567 553 L 632 553 L 632 586 L 567 586" opacity="0.2"></path></g><g transform="translate(-134,-198) scale(1,1)"><path fill="#C0C0C0" stroke="none" d="M 567 553 L 577 543 L 642 543 L 632 553" opacity="0.2"></path></g><g transform="translate(-134,-198) scale(1,1)"><path fill="#C0C0C0" stroke="none" d="M 642 543 L 632 553 L 632 586 L 642 576" opacity="0.2"></path></g><g transform="translate(-134,-198) scale(1,1)"><path fill="#ffffff" stroke="none" d="M 560 546 L 625 546 L 625 579 L 560 579"></path></g><g transform="translate(-134,-198) scale(1,1)"><path fill="#ffffff" stroke="none" d="M 560 546 L 570 536 L 635 536 L 625 546"></path></g><g transform="translate(-134,-198) scale(1,1)"><path fill="#ffffff" stroke="none" d="M 635 536 L 625 546 L 625 579 L 635 569"></path></g><g transform="translate(-134,-198) scale(1,1)"><path fill="none" stroke="#000000" d="M 560 546 L 625 546 L 625 579 L 560 579 L 560 546" stroke-miterlimit="10"></path></g><g transform="translate(-134,-198) scale(1,1)"><path fill="none" stroke="#000000" d="M 560 546 L 570 536 L 635 536 L 625 546 L 560 546" stroke-miterlimit="10"></path></g><g transform="translate(-134,-198) scale(1,1)"><path fill="none" stroke="#000000" d="M 635 536 L 625 546 L 625 579 L 635 569 L 635 536" stroke-miterlimit="10"></path></g><g transform="translate(-134,-198) scale(1,1)"><g><path fill="none" stroke="none"></path><text fill="#000000" stroke="none" font-family="Arial" font-size="13px" font-style="normal" font-weight="bold" text-decoration="none" x="565.5" y="565.5">Star UML</text></g></g></g></svg>