<svg version="1.1" xmlns="http://www.w3.org/2000/svg" xmlns:xlink="http://www.w3.org/1999/xlink" width="621" height="59"><defs></defs><g><g transform="translate(-334,-198) scale(1,1)"><path fill="#C0C0C0" stroke="none" d="M 409 215 L 477 215 Q 487 215 487 225 L 487 244 Q 487 254 477 254 L 409 254 Q 399 254 399 244 L 399 225 Q 399 215 409 215 Z" opacity="0.2"></path></g><g transform="translate(-334,-198) scale(1,1)"><path fill="#ffffff" stroke="none" d="M 402 208 L 470 208 Q 480 208 480 218 L 480 237 Q 480 247 470 247 L 402 247 Q 392 247 392 237 L 392 218 Q 392 208 402 208 Z"></path></g><g transform="translate(-334,-198) scale(1,1)"><path fill="none" stroke="#000000" d="M 402 208 L 470 208 Q 480 208 480 218 L 480 237 Q 480 247 470 247 L 402 247 Q 392 247 392 237 L 392 218 Q 392 208 402 208 Z" stroke-miterlimit="10"></path></g><g transform="translate(-334,-198) scale(1,1)"><g><path fill="none" stroke="none"></path><text fill="#000000" stroke="none" font-family="Arial" font-size="13px" font-style="normal" font-weight="bold" text-decoration="none" x="407.5" y="227.5">correction</text></g></g><g transform="translate(-334,-198) scale(1,1)"><path fill="#C0C0C0" stroke="none" d="M 351 232.5 C 351 227.2532944 355.2532944 223 360.5 223 C 365.7467056 223 370 227.2532944 370 232.5 C 370 237.7467056 365.7467056 242 360.5 242 C 355.2532944 242 351 237.7467056 351 232.5 Z" opacity="0.2"></path></g><g transform="translate(-334,-198) scale(1,1)"><path fill="#000000" stroke="none" d="M 344 225.5 C 344 220.2532944 348.2532944 216 353.5 216 C 358.7467056 216 363 220.2532944 363 225.5 C 363 230.7467056 358.7467056 235 353.5 235 C 348.2532944 235 344 230.7467056 344 225.5 Z"></path></g><g transform="translate(-334,-198) scale(1,1)"><path fill="#C0C0C0" stroke="none" d="M 529 215 L 574 215 Q 584 215 584 225 L 584 244 Q 584 254 574 254 L 529 254 Q 519 254 519 244 L 519 225 Q 519 215 529 215 Z" opacity="0.2"></path></g><g transform="translate(-334,-198) scale(1,1)"><path fill="#ffffff" stroke="none" d="M 522 208 L 567 208 Q 577 208 577 218 L 577 237 Q 577 247 567 247 L 522 247 Q 512 247 512 237 L 512 218 Q 512 208 522 208 Z"></path></g><g transform="translate(-334,-198) scale(1,1)"><path fill="none" stroke="#000000" d="M 522 208 L 567 208 Q 577 208 577 218 L 577 237 Q 577 247 567 247 L 522 247 Q 512 247 512 237 L 512 218 Q 512 208 522 208 Z" stroke-miterlimit="10"></path></g><g transform="translate(-334,-198) scale(1,1)"><g><path fill="none" stroke="none"></path><text fill="#000000" stroke="none" font-family="Arial" font-size="13px" font-style="normal" font-weight="bold" text-decoration="none" x="526" y="227.5">review</text></g></g><g transform="translate(-334,-198) scale(1,1)"><path fill="#C0C0C0" stroke="none" d="M 737 215 L 783 215 Q 793 215 793 225 L 793 244 Q 793 254 783 254 L 737 254 Q 727 254 727 244 L 727 225 Q 727 215 737 215 Z" opacity="0.2"></path></g><g transform="translate(-334,-198) scale(1,1)"><path fill="#ffffff" stroke="none" d="M 730 208 L 776 208 Q 786 208 786 218 L 786 237 Q 786 247 776 247 L 730 247 Q 720 247 720 237 L 720 218 Q 720 208 730 208 Z"></path></g><g transform="translate(-334,-198) scale(1,1)"><path fill="none" stroke="#000000" d="M 730 208 L 776 208 Q 786 208 786 218 L 786 237 Q 786 247 776 247 L 730 247 Q 720 247 720 237 L 720 218 Q 720 208 730 208 Z" stroke-miterlimit="10"></path></g><g transform="translate(-334,-198) scale(1,1)"><g><path fill="none" stroke="none"></path><text fill="#000000" stroke="none" font-family="Arial" font-size="13px" font-style="normal" font-weight="bold" text-decoration="none" x="734" y="227.5">appeal</text></g></g><g transform="translate(-334,-198) scale(1,1)"><path fill="#C0C0C0" stroke="none" d="M 927 235.5 C 927 228.59644 932.59644 223 939.5 223 C 946.40356 223 952 228.59644 952 235.5 C 952 242.40356 946.40356 248 939.5 248 C 932.59644 248 927 242.40356 927 235.5 Z" opacity="0.2"></path></g><g transform="translate(-334,-198) scale(1,1)"><path fill="none" stroke="#000000" d="M 920 228.5 C 920 221.59644 925.59644 216 932.5 216 C 939.40356 216 945 221.59644 945 228.5 C 945 235.40356 939.40356 241 932.5 241 C 925.59644 241 920 235.40356 920 228.5 Z" stroke-miterlimit="10"></path></g><g transform="translate(-334,-198) scale(1,1)"><path fill="#000000" stroke="none" d="M 925 228.5 C 925 224.357864 928.357864 221 932.5 221 C 936.642136 221 940 224.357864 940 228.5 C 940 232.642136 936.642136 236 932.5 236 C 928.357864 236 925 232.642136 925 228.5 Z"></path></g><g transform="translate(-334,-198) scale(1,1)"><path fill="none" stroke="#000000" d="M 363 224 L 392 224" stroke-miterlimit="10"></path></g><g transform="translate(-334,-198) scale(1,1)"><path fill="none" stroke="#000000" d="M 381.83732514237585 228.209517756016 L 392 224 L 381.83732514237585 219.790482243984" stroke-miterlimit="10"></path></g><g transform="translate(-334,-198) scale(1,1)"><path fill="none" stroke="#000000" d="M 880 224 L 920 224" stroke-miterlimit="10"></path></g><g transform="translate(-334,-198) scale(1,1)"><path fill="none" stroke="#000000" d="M 909.8373251423759 228.209517756016 L 920 224 L 909.8373251423758 219.790482243984" stroke-miterlimit="10"></path></g><g transform="translate(-334,-198) scale(1,1)"><path fill="#C0C0C0" stroke="none" d="M 833 215 L 877 215 Q 887 215 887 225 L 887 244 Q 887 254 877 254 L 833 254 Q 823 254 823 244 L 823 225 Q 823 215 833 215 Z" opacity="0.2"></path></g><g transform="translate(-334,-198) scale(1,1)"><path fill="#ffffff" stroke="none" d="M 826 208 L 870 208 Q 880 208 880 218 L 880 237 Q 880 247 870 247 L 826 247 Q 816 247 816 237 L 816 218 Q 816 208 826 208 Z"></path></g><g transform="translate(-334,-198) scale(1,1)"><path fill="none" stroke="#000000" d="M 826 208 L 870 208 Q 880 208 880 218 L 880 237 Q 880 247 870 247 L 826 247 Q 816 247 816 237 L 816 218 Q 816 208 826 208 Z" stroke-miterlimit="10"></path></g><g transform="translate(-334,-198) scale(1,1)"><g><path fill="none" stroke="none"></path><text fill="#000000" stroke="none" font-family="Arial" font-size="13px" font-style="normal" font-weight="bold" text-decoration="none" x="823.5" y="227.5">archived</text></g></g><g transform="translate(-334,-198) scale(1,1)"><path fill="#C0C0C0" stroke="none" d="M 633 215 L 677 215 Q 687 215 687 225 L 687 244 Q 687 254 677 254 L 633 254 Q 623 254 623 244 L 623 225 Q 623 215 633 215 Z" opacity="0.2"></path></g><g transform="translate(-334,-198) scale(1,1)"><path fill="#ffffff" stroke="none" d="M 626 208 L 670 208 Q 680 208 680 218 L 680 237 Q 680 247 670 247 L 626 247 Q 616 247 616 237 L 616 218 Q 616 208 626 208 Z"></path></g><g transform="translate(-334,-198) scale(1,1)"><path fill="none" stroke="#000000" d="M 626 208 L 670 208 Q 680 208 680 218 L 680 237 Q 680 247 670 247 L 626 247 Q 616 247 616 237 L 616 218 Q 616 208 626 208 Z" stroke-miterlimit="10"></path></g><g transform="translate(-334,-198) scale(1,1)"><g><path fill="none" stroke="none"></path><text fill="#000000" stroke="none" font-family="Arial" font-size="13px" font-style="normal" font-weight="bold" text-decoration="none" x="623.5" y="227.5">approval</text></g></g><g transform="translate(-334,-198) scale(1,1)"><path fill="none" stroke="#000000" d="M 481 227 L 511 227" stroke-miterlimit="10"></path></g><g transform="translate(-334,-198) scale(1,1)"><path fill="none" stroke="#000000" d="M 500.83732514237585 231.209517756016 L 511 227 L 500.83732514237585 222.790482243984" stroke-miterlimit="10"></path></g><g transform="translate(-334,-198) scale(1,1)"><path fill="none" stroke="#000000" d="M 578 227 L 615 227" stroke-miterlimit="10"></path></g><g transform="translate(-334,-198) scale(1,1)"><path fill="none" stroke="#000000" d="M 604.8373251423759 231.209517756016 L 615 227 L 604.8373251423758 222.790482243984" stroke-miterlimit="10"></path></g><g transform="translate(-334,-198) scale(1,1)"><path fill="none" stroke="#000000" d="M 681 227 L 719 227" stroke-miterlimit="10"></path></g><g transform="translate(-334,-198) scale(1,1)"><path fill="none" stroke="#000000" d="M 708.8373251423759 231.209517756016 L 719 227 L 708.8373251423758 222.790482243984" stroke-miterlimit="10"></path></g><g transform="translate(-334,-198) scale(1,1)"><path fill="none" stroke="#000000" d="M 787 227 L 815 227" stroke-miterlimit="10"></path></g><g transform="translate(-334,-198) scale(1,1)"><path fill="none" stroke="#000000" d="M 804.8373251423759 231.209517756016 L 815 227 L 804.8373251423758 222.790482243984" stroke-miterlimit="10"></path></g></g></svg>