<svg version="1.1" xmlns="http://www.w3.org/2000/svg" xmlns:xlink="http://www.w3.org/1999/xlink" width="1300" height="1404"><defs></defs><g><g transform="translate(-294,-102) scale(1,1)"><rect fill="#C0C0C0" stroke="none" x="463" y="119" width="1128" height="1384" opacity="0.2"></rect></g><g transform="translate(-294,-102) scale(1,1)"><rect fill="#ffffff" stroke="none" x="456" y="112" width="1128" height="1384"></rect></g><g transform="translate(-294,-102) scale(1,1)"><path fill="none" stroke="#000000" d="M 456 112 L 1584 112 L 1584 1496 L 456 1496 L 456 112 Z Z" stroke-miterlimit="10"></path></g><g transform="translate(-294,-102) scale(1,1)"><g><path fill="none" stroke="none"></path><text fill="#000000" stroke="none" font-family="Arial" font-size="13px" font-style="normal" font-weight="bold" text-decoration="none" x="956.5" y="131.5">Examibur Erweiterung</text></g></g><g transform="translate(-294,-102) scale(1,1)"><path fill="none" stroke="#000000" d="M 381 224 L 972 655" stroke-miterlimit="10"></path></g><g transform="translate(-294,-102) scale(1,1)"><path fill="#ffffff" stroke="none" d="M 337.32072727272725 169.68 C 337.32072727272725 164.886167936 341.20656959767274 161 346 161 C 350.79343040232726 161 354.67927272727275 164.886167936 354.67927272727275 169.68 C 354.67927272727275 174.47383206400002 350.79343040232726 178.36 346 178.36 C 341.20656959767274 178.36 337.32072727272725 174.47383206400002 337.32072727272725 169.68 Z"></path></g><g transform="translate(-294,-102) scale(1,1)"><path fill="none" stroke="#000000" d="M 337.32072727272725 169.68 C 337.32072727272725 164.886167936 341.20656959767274 161 346 161 C 350.79343040232726 161 354.67927272727275 164.886167936 354.67927272727275 169.68 C 354.67927272727275 174.47383206400002 350.79343040232726 178.36 346 178.36 C 341.20656959767274 178.36 337.32072727272725 174.47383206400002 337.32072727272725 169.68 Z" stroke-miterlimit="10"></path></g><g transform="translate(-294,-102) scale(1,1)"><path fill="none" stroke="#000000" d="M 346 178.36 L 346 195.64" stroke-miterlimit="10"></path></g><g transform="translate(-294,-102) scale(1,1)"><path fill="none" stroke="#000000" d="M 336.81018181818183 184.84 L 355.18981818181817 184.84" stroke-miterlimit="10"></path></g><g transform="translate(-294,-102) scale(1,1)"><path fill="none" stroke="#000000" d="M 346 195.64 L 333.23636363636365 213" stroke-miterlimit="10"></path></g><g transform="translate(-294,-102) scale(1,1)"><path fill="none" stroke="#000000" d="M 346 195.64 L 358.76363636363635 213" stroke-miterlimit="10"></path></g><g transform="translate(-294,-102) scale(1,1)"><g><path fill="none" stroke="none"></path><text fill="#000000" stroke="none" font-family="Arial" font-size="13px" font-style="normal" font-weight="bold" text-decoration="none" x="319.5" y="233.5">Korrektor</text></g></g><g transform="translate(-294,-102) scale(1,1)"><path fill="#ffffff" stroke="none" d="M 336.32072727272725 785.6800000000001 C 336.32072727272725 780.8861679360001 340.20656959767274 777 345 777 C 349.79343040232726 777 353.67927272727275 780.8861679360001 353.67927272727275 785.6800000000001 C 353.67927272727275 790.473832064 349.79343040232726 794.36 345 794.36 C 340.20656959767274 794.36 336.32072727272725 790.473832064 336.32072727272725 785.6800000000001 Z"></path></g><g transform="translate(-294,-102) scale(1,1)"><path fill="none" stroke="#000000" d="M 336.32072727272725 785.6800000000001 C 336.32072727272725 780.8861679360001 340.20656959767274 777 345 777 C 349.79343040232726 777 353.67927272727275 780.8861679360001 353.67927272727275 785.6800000000001 C 353.67927272727275 790.473832064 349.79343040232726 794.36 345 794.36 C 340.20656959767274 794.36 336.32072727272725 790.473832064 336.32072727272725 785.6800000000001 Z" stroke-miterlimit="10"></path></g><g transform="translate(-294,-102) scale(1,1)"><path fill="none" stroke="#000000" d="M 345 794.36 L 345 811.64" stroke-miterlimit="10"></path></g><g transform="translate(-294,-102) scale(1,1)"><path fill="none" stroke="#000000" d="M 335.81018181818183 800.84 L 354.18981818181817 800.84" stroke-miterlimit="10"></path></g><g transform="translate(-294,-102) scale(1,1)"><path fill="none" stroke="#000000" d="M 345 811.64 L 332.23636363636365 829" stroke-miterlimit="10"></path></g><g transform="translate(-294,-102) scale(1,1)"><path fill="none" stroke="#000000" d="M 345 811.64 L 357.76363636363635 829" stroke-miterlimit="10"></path></g><g transform="translate(-294,-102) scale(1,1)"><g><path fill="none" stroke="none"></path><text fill="#000000" stroke="none" font-family="Arial" font-size="13px" font-style="normal" font-weight="bold" text-decoration="none" x="313" y="849.5">Verwaltung</text></g></g><g transform="translate(-294,-102) scale(1,1)"><path fill="#ffffff" stroke="none" d="M 337.82072727272725 521.6800000000001 C 337.82072727272725 516.8861679360001 341.70656959767274 513 346.5 513 C 351.29343040232726 513 355.17927272727275 516.8861679360001 355.17927272727275 521.6800000000001 C 355.17927272727275 526.473832064 351.29343040232726 530.36 346.5 530.36 C 341.70656959767274 530.36 337.82072727272725 526.473832064 337.82072727272725 521.6800000000001 Z"></path></g><g transform="translate(-294,-102) scale(1,1)"><path fill="none" stroke="#000000" d="M 337.82072727272725 521.6800000000001 C 337.82072727272725 516.8861679360001 341.70656959767274 513 346.5 513 C 351.29343040232726 513 355.17927272727275 516.8861679360001 355.17927272727275 521.6800000000001 C 355.17927272727275 526.473832064 351.29343040232726 530.36 346.5 530.36 C 341.70656959767274 530.36 337.82072727272725 526.473832064 337.82072727272725 521.6800000000001 Z" stroke-miterlimit="10"></path></g><g transform="translate(-294,-102) scale(1,1)"><path fill="none" stroke="#000000" d="M 346.5 530.36 L 346.5 547.64" stroke-miterlimit="10"></path></g><g transform="translate(-294,-102) scale(1,1)"><path fill="none" stroke="#000000" d="M 337.31018181818183 536.84 L 355.68981818181817 536.84" stroke-miterlimit="10"></path></g><g transform="translate(-294,-102) scale(1,1)"><path fill="none" stroke="#000000" d="M 346.5 547.64 L 333.73636363636365 565" stroke-miterlimit="10"></path></g><g transform="translate(-294,-102) scale(1,1)"><path fill="none" stroke="#000000" d="M 346.5 547.64 L 359.26363636363635 565" stroke-miterlimit="10"></path></g><g transform="translate(-294,-102) scale(1,1)"><g><path fill="none" stroke="none"></path><text fill="#000000" stroke="none" font-family="Arial" font-size="13px" font-style="normal" font-weight="bold" text-decoration="none" x="321" y="585.5">Reviewer</text></g></g><g transform="translate(-294,-102) scale(1,1)"><path fill="#ffffff" stroke="none" d="M 340.32072727272725 1129.6799999999998 C 340.32072727272725 1124.8861679359998 344.20656959767274 1121 349 1121 C 353.79343040232726 1121 357.67927272727275 1124.8861679359998 357.67927272727275 1129.6799999999998 C 357.67927272727275 1134.473832064 353.79343040232726 1138.36 349 1138.36 C 344.20656959767274 1138.36 340.32072727272725 1134.473832064 340.32072727272725 1129.6799999999998 Z"></path></g><g transform="translate(-294,-102) scale(1,1)"><path fill="none" stroke="#000000" d="M 340.32072727272725 1129.6799999999998 C 340.32072727272725 1124.8861679359998 344.20656959767274 1121 349 1121 C 353.79343040232726 1121 357.67927272727275 1124.8861679359998 357.67927272727275 1129.6799999999998 C 357.67927272727275 1134.473832064 353.79343040232726 1138.36 349 1138.36 C 344.20656959767274 1138.36 340.32072727272725 1134.473832064 340.32072727272725 1129.6799999999998 Z" stroke-miterlimit="10"></path></g><g transform="translate(-294,-102) scale(1,1)"><path fill="none" stroke="#000000" d="M 349 1138.36 L 349 1155.64" stroke-miterlimit="10"></path></g><g transform="translate(-294,-102) scale(1,1)"><path fill="none" stroke="#000000" d="M 339.81018181818183 1144.84 L 358.18981818181817 1144.84" stroke-miterlimit="10"></path></g><g transform="translate(-294,-102) scale(1,1)"><path fill="none" stroke="#000000" d="M 349 1155.64 L 336.23636363636365 1173" stroke-miterlimit="10"></path></g><g transform="translate(-294,-102) scale(1,1)"><path fill="none" stroke="#000000" d="M 349 1155.64 L 361.76363636363635 1173" stroke-miterlimit="10"></path></g><g transform="translate(-294,-102) scale(1,1)"><g><path fill="none" stroke="none"></path><text fill="#000000" stroke="none" font-family="Arial" font-size="13px" font-style="normal" font-weight="bold" text-decoration="none" x="326.5" y="1193.5">Student</text></g></g><g transform="translate(-294,-102) scale(1,1)"><path fill="#C0C0C0" stroke="none" d="M 855 216 C 855 206.6111584 906.0395328 199 969 199 C 1031.9604672 199 1083 206.6111584 1083 216 C 1083 225.3888416 1031.9604672 233 969 233 C 906.0395328 233 855 225.3888416 855 216 Z" opacity="0.2"></path></g><g transform="translate(-294,-102) scale(1,1)"><path fill="#ffffff" stroke="none" d="M 848 209 C 848 199.6111584 899.0395328 192 962 192 C 1024.9604672 192 1076 199.6111584 1076 209 C 1076 218.3888416 1024.9604672 226 962 226 C 899.0395328 226 848 218.3888416 848 209 Z"></path></g><g transform="translate(-294,-102) scale(1,1)"><path fill="none" stroke="#000000" d="M 848 209 C 848 199.6111584 899.0395328 192 962 192 C 1024.9604672 192 1076 199.6111584 1076 209 C 1076 218.3888416 1024.9604672 226 962 226 C 899.0395328 226 848 218.3888416 848 209 Z" stroke-miterlimit="10"></path></g><g transform="translate(-294,-102) scale(1,1)"><g><path fill="none" stroke="none"></path><text fill="#000000" stroke="none" font-family="Arial" font-size="13px" font-style="normal" font-weight="bold" text-decoration="none" x="893" y="216">UC101 Login durchführe</text></g></g><g transform="translate(-294,-102) scale(1,1)"><path fill="none" stroke="#000000" d="M 381 200 L 847 207" stroke-miterlimit="10"></path></g><g transform="translate(-294,-102) scale(1,1)"><path fill="none" stroke="#000000" d="M 382 531 L 930 227" stroke-miterlimit="10"></path></g><g transform="translate(-294,-102) scale(1,1)"><path fill="none" stroke="#000000" d="M 386 775 L 944 227" stroke-miterlimit="10"></path></g><g transform="translate(-294,-102) scale(1,1)"><path fill="none" stroke="#000000" d="M 375 1119 L 950 227" stroke-miterlimit="10"></path></g><g transform="translate(-294,-102) scale(1,1)"><path fill="#C0C0C0" stroke="none" d="M 863 456 C 863 446.6111584 907.9953776 439 963.5 439 C 1019.0046224 439 1064 446.6111584 1064 456 C 1064 465.3888416 1019.0046224 473 963.5 473 C 907.9953776 473 863 465.3888416 863 456 Z" opacity="0.2"></path></g><g transform="translate(-294,-102) scale(1,1)"><path fill="#ffffff" stroke="none" d="M 856 449 C 856 439.6111584 900.9953776 432 956.5 432 C 1012.0046224 432 1057 439.6111584 1057 449 C 1057 458.3888416 1012.0046224 466 956.5 466 C 900.9953776 466 856 458.3888416 856 449 Z"></path></g><g transform="translate(-294,-102) scale(1,1)"><path fill="none" stroke="#000000" d="M 856 449 C 856 439.6111584 900.9953776 432 956.5 432 C 1012.0046224 432 1057 439.6111584 1057 449 C 1057 458.3888416 1012.0046224 466 956.5 466 C 900.9953776 466 856 458.3888416 856 449 Z" stroke-miterlimit="10"></path></g><g transform="translate(-294,-102) scale(1,1)"><g><path fill="none" stroke="none"></path><text fill="#000000" stroke="none" font-family="Arial" font-size="13px" font-style="normal" font-weight="bold" text-decoration="none" x="893" y="456">UC102 CRUD Prüfung</text></g></g><g transform="translate(-294,-102) scale(1,1)"><path fill="none" stroke="#000000" d="M 381 213 L 912 431" stroke-miterlimit="10"></path></g><g transform="translate(-294,-102) scale(1,1)"><path fill="none" stroke="#000000" d="M 387 790 L 926 467" stroke-miterlimit="10"></path></g><g transform="translate(-294,-102) scale(1,1)"><path fill="#C0C0C0" stroke="none" d="M 855 576 C 855 566.6111584 905.36796 559 967.5 559 C 1029.63204 559 1080 566.6111584 1080 576 C 1080 585.3888416 1029.63204 593 967.5 593 C 905.36796 593 855 585.3888416 855 576 Z" opacity="0.2"></path></g><g transform="translate(-294,-102) scale(1,1)"><path fill="#ffffff" stroke="none" d="M 848 569 C 848 559.6111584 898.36796 552 960.5 552 C 1022.63204 552 1073 559.6111584 1073 569 C 1073 578.3888416 1022.63204 586 960.5 586 C 898.36796 586 848 578.3888416 848 569 Z"></path></g><g transform="translate(-294,-102) scale(1,1)"><path fill="none" stroke="#000000" d="M 848 569 C 848 559.6111584 898.36796 552 960.5 552 C 1022.63204 552 1073 559.6111584 1073 569 C 1073 578.3888416 1022.63204 586 960.5 586 C 898.36796 586 848 578.3888416 848 569 Z" stroke-miterlimit="10"></path></g><g transform="translate(-294,-102) scale(1,1)"><g><path fill="none" stroke="none"></path><text fill="#000000" stroke="none" font-family="Arial" font-size="13px" font-style="normal" font-weight="bold" text-decoration="none" x="890.5" y="576">UC103 Prüfung scannen</text></g></g><g transform="translate(-294,-102) scale(1,1)"><path fill="none" stroke="#000000" d="M 381 220 L 930 551" stroke-miterlimit="10"></path></g><g transform="translate(-294,-102) scale(1,1)"><path fill="none" stroke="#000000" d="M 387 798 L 915 587" stroke-miterlimit="10"></path></g><g transform="translate(-294,-102) scale(1,1)"><path fill="#C0C0C0" stroke="none" d="M 1239 536 C 1239 526.6111584 1314.2161536 519 1407 519 C 1499.7838464 519 1575 526.6111584 1575 536 C 1575 545.3888416 1499.7838464 553 1407 553 C 1314.2161536 553 1239 545.3888416 1239 536 Z" opacity="0.2"></path></g><g transform="translate(-294,-102) scale(1,1)"><path fill="#ffffff" stroke="none" d="M 1232 529 C 1232 519.6111584 1307.2161536 512 1400 512 C 1492.7838464 512 1568 519.6111584 1568 529 C 1568 538.3888416 1492.7838464 546 1400 546 C 1307.2161536 546 1232 538.3888416 1232 529 Z"></path></g><g transform="translate(-294,-102) scale(1,1)"><path fill="none" stroke="#000000" d="M 1232 529 C 1232 519.6111584 1307.2161536 512 1400 512 C 1492.7838464 512 1568 519.6111584 1568 529 C 1568 538.3888416 1492.7838464 546 1400 546 C 1307.2161536 546 1232 538.3888416 1232 529 Z" stroke-miterlimit="10"></path></g><g transform="translate(-294,-102) scale(1,1)"><g><path fill="none" stroke="none"></path><text fill="#000000" stroke="none" font-family="Arial" font-size="13px" font-style="normal" font-weight="bold" text-decoration="none" x="1295.5" y="536">UC104 Prüfungsaufgaben aufsplitten</text></g></g><g transform="translate(-294,-102) scale(1,1)"><path fill="none" stroke="#000000" d="M 1074 559 L 1231 544" stroke-miterlimit="10" stroke-dasharray="3"></path></g><g transform="translate(-294,-102) scale(1,1)"><path fill="none" stroke="#000000" d="M 1221.2837533519046 549.1569905054572 L 1231 544 L 1220.4830331505273 540.7761190643741" stroke-miterlimit="10"></path></g><g transform="translate(-294,-102) scale(1,1)"><g><path fill="none" stroke="none"></path><text fill="#000000" stroke="none" font-family="Arial" font-size="13px" font-style="normal" font-weight="normal" text-decoration="none" x="1121.5" y="527.5">«include»</text></g></g><g transform="translate(-294,-102) scale(1,1)"><path fill="#C0C0C0" stroke="none" d="M 1063 640 C 1063 630.6111584 1179.1820944 623 1322.5 623 C 1465.8179056 623 1582 630.6111584 1582 640 C 1582 649.3888416 1465.8179056 657 1322.5 657 C 1179.1820944 657 1063 649.3888416 1063 640 Z" opacity="0.2"></path></g><g transform="translate(-294,-102) scale(1,1)"><path fill="#ffffff" stroke="none" d="M 1056 633 C 1056 623.6111584 1172.1820944 616 1315.5 616 C 1458.8179056 616 1575 623.6111584 1575 633 C 1575 642.3888416 1458.8179056 650 1315.5 650 C 1172.1820944 650 1056 642.3888416 1056 633 Z"></path></g><g transform="translate(-294,-102) scale(1,1)"><path fill="none" stroke="#000000" d="M 1056 633 C 1056 623.6111584 1172.1820944 616 1315.5 616 C 1458.8179056 616 1575 623.6111584 1575 633 C 1575 642.3888416 1458.8179056 650 1315.5 650 C 1172.1820944 650 1056 642.3888416 1056 633 Z" stroke-miterlimit="10"></path></g><g transform="translate(-294,-102) scale(1,1)"><g><path fill="none" stroke="none"></path><text fill="#000000" stroke="none" font-family="Arial" font-size="13px" font-style="normal" font-weight="bold" text-decoration="none" x="1151.5" y="640">UC105 Multiple-Choice-Aufgaben automatisch auswerten</text></g></g><g transform="translate(-294,-102) scale(1,1)"><path fill="none" stroke="#000000" d="M 1060 587 L 1215 615" stroke-miterlimit="10" stroke-dasharray="3"></path></g><g transform="translate(-294,-102) scale(1,1)"><path fill="none" stroke="#000000" d="M 1204.2508745325124 617.3358727885329 L 1215 615 L 1205.7475090013538 609.0509319788752" stroke-miterlimit="10"></path></g><g transform="translate(-294,-102) scale(1,1)"><g><path fill="none" stroke="none"></path><text fill="#000000" stroke="none" font-family="Arial" font-size="13px" font-style="normal" font-weight="normal" text-decoration="none" x="1114.5" y="577.5">«include»</text></g></g><g transform="translate(-294,-102) scale(1,1)"><path fill="#C0C0C0" stroke="none" d="M 879 744 C 879 734.6111584 926.6816688 727 985.5 727 C 1044.3183312 727 1092 734.6111584 1092 744 C 1092 753.3888416 1044.3183312 761 985.5 761 C 926.6816688 761 879 753.3888416 879 744 Z" opacity="0.2"></path></g><g transform="translate(-294,-102) scale(1,1)"><path fill="#ffffff" stroke="none" d="M 872 737 C 872 727.6111584 919.6816688 720 978.5 720 C 1037.3183312 720 1085 727.6111584 1085 737 C 1085 746.3888416 1037.3183312 754 978.5 754 C 919.6816688 754 872 746.3888416 872 737 Z"></path></g><g transform="translate(-294,-102) scale(1,1)"><path fill="none" stroke="#000000" d="M 872 737 C 872 727.6111584 919.6816688 720 978.5 720 C 1037.3183312 720 1085 727.6111584 1085 737 C 1085 746.3888416 1037.3183312 754 978.5 754 C 919.6816688 754 872 746.3888416 872 737 Z" stroke-miterlimit="10"></path></g><g transform="translate(-294,-102) scale(1,1)"><g><path fill="none" stroke="none"></path><text fill="#000000" stroke="none" font-family="Arial" font-size="13px" font-style="normal" font-weight="bold" text-decoration="none" x="910.5" y="744">UC106 CRUD Korrektor</text></g></g><g transform="translate(-294,-102) scale(1,1)"><path fill="none" stroke="#000000" d="M 387 810 L 871 750" stroke-miterlimit="10"></path></g><g transform="translate(-294,-102) scale(1,1)"><path fill="#C0C0C0" stroke="none" d="M 871 824 C 871 814.6111584 923.1588208000001 807 987.5 807 C 1051.8411792 807 1104 814.6111584 1104 824 C 1104 833.3888416 1051.8411792 841 987.5 841 C 923.1588208000001 841 871 833.3888416 871 824 Z" opacity="0.2"></path></g><g transform="translate(-294,-102) scale(1,1)"><path fill="#ffffff" stroke="none" d="M 864 817 C 864 807.6111584 916.1588208000001 800 980.5 800 C 1044.8411792 800 1097 807.6111584 1097 817 C 1097 826.3888416 1044.8411792 834 980.5 834 C 916.1588208000001 834 864 826.3888416 864 817 Z"></path></g><g transform="translate(-294,-102) scale(1,1)"><path fill="none" stroke="#000000" d="M 864 817 C 864 807.6111584 916.1588208000001 800 980.5 800 C 1044.8411792 800 1097 807.6111584 1097 817 C 1097 826.3888416 1044.8411792 834 980.5 834 C 916.1588208000001 834 864 826.3888416 864 817 Z" stroke-miterlimit="10"></path></g><g transform="translate(-294,-102) scale(1,1)"><g><path fill="none" stroke="none"></path><text fill="#000000" stroke="none" font-family="Arial" font-size="13px" font-style="normal" font-weight="bold" text-decoration="none" x="907" y="824">UC107 CRUD Verwaltung</text></g></g><g transform="translate(-294,-102) scale(1,1)"><path fill="none" stroke="#000000" d="M 387 815 L 863 817" stroke-miterlimit="10"></path></g><g transform="translate(-294,-102) scale(1,1)"><path fill="#C0C0C0" stroke="none" d="M 879 912 C 879 902.6111584 927.129384 895 986.5 895 C 1045.870616 895 1094 902.6111584 1094 912 C 1094 921.3888416 1045.870616 929 986.5 929 C 927.129384 929 879 921.3888416 879 912 Z" opacity="0.2"></path></g><g transform="translate(-294,-102) scale(1,1)"><path fill="#ffffff" stroke="none" d="M 872 905 C 872 895.6111584 920.129384 888 979.5 888 C 1038.870616 888 1087 895.6111584 1087 905 C 1087 914.3888416 1038.870616 922 979.5 922 C 920.129384 922 872 914.3888416 872 905 Z"></path></g><g transform="translate(-294,-102) scale(1,1)"><path fill="none" stroke="#000000" d="M 872 905 C 872 895.6111584 920.129384 888 979.5 888 C 1038.870616 888 1087 895.6111584 1087 905 C 1087 914.3888416 1038.870616 922 979.5 922 C 920.129384 922 872 914.3888416 872 905 Z" stroke-miterlimit="10"></path></g><g transform="translate(-294,-102) scale(1,1)"><g><path fill="none" stroke="none"></path><text fill="#000000" stroke="none" font-family="Arial" font-size="13px" font-style="normal" font-weight="bold" text-decoration="none" x="912.5" y="912">UC108 CRUD Reviewer</text></g></g><g transform="translate(-294,-102) scale(1,1)"><path fill="none" stroke="#000000" d="M 387 821 L 871 890" stroke-miterlimit="10"></path></g><g transform="translate(-294,-102) scale(1,1)"><path fill="#C0C0C0" stroke="none" d="M 871 984 C 871 974.6111584 915.5476624 967 970.5 967 C 1025.4523376 967 1070 974.6111584 1070 984 C 1070 993.3888416 1025.4523376 1001 970.5 1001 C 915.5476624 1001 871 993.3888416 871 984 Z" opacity="0.2"></path></g><g transform="translate(-294,-102) scale(1,1)"><path fill="#ffffff" stroke="none" d="M 864 977 C 864 967.6111584 908.5476624 960 963.5 960 C 1018.4523376 960 1063 967.6111584 1063 977 C 1063 986.3888416 1018.4523376 994 963.5 994 C 908.5476624 994 864 986.3888416 864 977 Z"></path></g><g transform="translate(-294,-102) scale(1,1)"><path fill="none" stroke="#000000" d="M 864 977 C 864 967.6111584 908.5476624 960 963.5 960 C 1018.4523376 960 1063 967.6111584 1063 977 C 1063 986.3888416 1018.4523376 994 963.5 994 C 908.5476624 994 864 986.3888416 864 977 Z" stroke-miterlimit="10"></path></g><g transform="translate(-294,-102) scale(1,1)"><g><path fill="none" stroke="none"></path><text fill="#000000" stroke="none" font-family="Arial" font-size="13px" font-style="normal" font-weight="bold" text-decoration="none" x="899.5" y="984">UC108 CRUD Student</text></g></g><g transform="translate(-294,-102) scale(1,1)"><path fill="none" stroke="#000000" d="M 387 826 L 894 959" stroke-miterlimit="10"></path></g><g transform="translate(-294,-102) scale(1,1)"><path fill="#C0C0C0" stroke="none" d="M 871 1064 C 871 1054.6111584 927.4121152 1047 997 1047 C 1066.5878848 1047 1123 1054.6111584 1123 1064 C 1123 1073.3888416 1066.5878848 1081 997 1081 C 927.4121152 1081 871 1073.3888416 871 1064 Z" opacity="0.2"></path></g><g transform="translate(-294,-102) scale(1,1)"><path fill="#ffffff" stroke="none" d="M 864 1057 C 864 1047.6111584 920.4121152 1040 990 1040 C 1059.5878848 1040 1116 1047.6111584 1116 1057 C 1116 1066.3888416 1059.5878848 1074 990 1074 C 920.4121152 1074 864 1066.3888416 864 1057 Z"></path></g><g transform="translate(-294,-102) scale(1,1)"><path fill="none" stroke="#000000" d="M 864 1057 C 864 1047.6111584 920.4121152 1040 990 1040 C 1059.5878848 1040 1116 1047.6111584 1116 1057 C 1116 1066.3888416 1059.5878848 1074 990 1074 C 920.4121152 1074 864 1066.3888416 864 1057 Z" stroke-miterlimit="10"></path></g><g transform="translate(-294,-102) scale(1,1)"><g><path fill="none" stroke="none"></path><text fill="#000000" stroke="none" font-family="Arial" font-size="13px" font-style="normal" font-weight="bold" text-decoration="none" x="910.5" y="1064">UC109 CRUD Benutzerrolle</text></g></g><g transform="translate(-294,-102) scale(1,1)"><path fill="none" stroke="#000000" d="M 387 831 L 942 1039" stroke-miterlimit="10"></path></g><g transform="translate(-294,-102) scale(1,1)"><path fill="#C0C0C0" stroke="none" d="M 879 1288 C 879 1278.6111584 934.7405424 1271 1003.5 1271 C 1072.2594576 1271 1128 1278.6111584 1128 1288 C 1128 1297.3888416 1072.2594576 1305 1003.5 1305 C 934.7405424 1305 879 1297.3888416 879 1288 Z" opacity="0.2"></path></g><g transform="translate(-294,-102) scale(1,1)"><path fill="#ffffff" stroke="none" d="M 872 1281 C 872 1271.6111584 927.7405424 1264 996.5 1264 C 1065.2594576 1264 1121 1271.6111584 1121 1281 C 1121 1290.3888416 1065.2594576 1298 996.5 1298 C 927.7405424 1298 872 1290.3888416 872 1281 Z"></path></g><g transform="translate(-294,-102) scale(1,1)"><path fill="none" stroke="#000000" d="M 872 1281 C 872 1271.6111584 927.7405424 1264 996.5 1264 C 1065.2594576 1264 1121 1271.6111584 1121 1281 C 1121 1290.3888416 1065.2594576 1298 996.5 1298 C 927.7405424 1298 872 1290.3888416 872 1281 Z" stroke-miterlimit="10"></path></g><g transform="translate(-294,-102) scale(1,1)"><g><path fill="none" stroke="none"></path><text fill="#000000" stroke="none" font-family="Arial" font-size="13px" font-style="normal" font-weight="bold" text-decoration="none" x="919" y="1288">UC110 Rekurs durchführen</text></g></g><g transform="translate(-294,-102) scale(1,1)"><path fill="none" stroke="#000000" d="M 379 1165 L 901 1263" stroke-miterlimit="10"></path></g><g transform="translate(-294,-102) scale(1,1)"><path fill="#C0C0C0" stroke="none" d="M 871 1144 C 871 1134.6111584 922.2633904 1127 985.5 1127 C 1048.7366096 1127 1100 1134.6111584 1100 1144 C 1100 1153.3888416 1048.7366096 1161 985.5 1161 C 922.2633904 1161 871 1153.3888416 871 1144 Z" opacity="0.2"></path></g><g transform="translate(-294,-102) scale(1,1)"><path fill="#ffffff" stroke="none" d="M 864 1137 C 864 1127.6111584 915.2633904 1120 978.5 1120 C 1041.7366096 1120 1093 1127.6111584 1093 1137 C 1093 1146.3888416 1041.7366096 1154 978.5 1154 C 915.2633904 1154 864 1146.3888416 864 1137 Z"></path></g><g transform="translate(-294,-102) scale(1,1)"><path fill="none" stroke="#000000" d="M 864 1137 C 864 1127.6111584 915.2633904 1120 978.5 1120 C 1041.7366096 1120 1093 1127.6111584 1093 1137 C 1093 1146.3888416 1041.7366096 1154 978.5 1154 C 915.2633904 1154 864 1146.3888416 864 1137 Z" stroke-miterlimit="10"></path></g><g transform="translate(-294,-102) scale(1,1)"><g><path fill="none" stroke="none"></path><text fill="#000000" stroke="none" font-family="Arial" font-size="13px" font-style="normal" font-weight="bold" text-decoration="none" x="908" y="1144">UC111 Rekurs verwalten</text></g></g><g transform="translate(-294,-102) scale(1,1)"><path fill="none" stroke="#000000" d="M 387 836 L 943 1119" stroke-miterlimit="10"></path></g><g transform="translate(-294,-102) scale(1,1)"><path fill="#C0C0C0" stroke="none" d="M 799 680 C 799 670.6111584 891.0054736 663 1004.5 663 C 1117.9945264 663 1210 670.6111584 1210 680 C 1210 689.3888416 1117.9945264 697 1004.5 697 C 891.0054736 697 799 689.3888416 799 680 Z" opacity="0.2"></path></g><g transform="translate(-294,-102) scale(1,1)"><path fill="#ffffff" stroke="none" d="M 792 673 C 792 663.6111584 884.0054736 656 997.5 656 C 1110.9945264 656 1203 663.6111584 1203 673 C 1203 682.3888416 1110.9945264 690 997.5 690 C 884.0054736 690 792 682.3888416 792 673 Z"></path></g><g transform="translate(-294,-102) scale(1,1)"><path fill="none" stroke="#000000" d="M 792 673 C 792 663.6111584 884.0054736 656 997.5 656 C 1110.9945264 656 1203 663.6111584 1203 673 C 1203 682.3888416 1110.9945264 690 997.5 690 C 884.0054736 690 792 682.3888416 792 673 Z" stroke-miterlimit="10"></path></g><g transform="translate(-294,-102) scale(1,1)"><g><path fill="none" stroke="none"></path><text fill="#000000" stroke="none" font-family="Arial" font-size="13px" font-style="normal" font-weight="bold" text-decoration="none" x="905.5" y="680">UC113 Notenexport durchführen</text></g></g><g transform="translate(-294,-102) scale(1,1)"><path fill="#C0C0C0" stroke="none" d="M 911 1464 C 911 1454.6111584 955.3238048 1447 1010 1447 C 1064.6761952 1447 1109 1454.6111584 1109 1464 C 1109 1473.3888416 1064.6761952 1481 1010 1481 C 955.3238048 1481 911 1473.3888416 911 1464 Z" opacity="0.2"></path></g><g transform="translate(-294,-102) scale(1,1)"><path fill="#ffffff" stroke="none" d="M 904 1457 C 904 1447.6111584 948.3238048 1440 1003 1440 C 1057.6761952 1440 1102 1447.6111584 1102 1457 C 1102 1466.3888416 1057.6761952 1474 1003 1474 C 948.3238048 1474 904 1466.3888416 904 1457 Z"></path></g><g transform="translate(-294,-102) scale(1,1)"><path fill="none" stroke="#000000" d="M 904 1457 C 904 1447.6111584 948.3238048 1440 1003 1440 C 1057.6761952 1440 1102 1447.6111584 1102 1457 C 1102 1466.3888416 1057.6761952 1474 1003 1474 C 948.3238048 1474 904 1466.3888416 904 1457 Z" stroke-miterlimit="10"></path></g><g transform="translate(-294,-102) scale(1,1)"><g><path fill="none" stroke="none"></path><text fill="#000000" stroke="none" font-family="Arial" font-size="13px" font-style="normal" font-weight="bold" text-decoration="none" x="942" y="1464">UC112 Aktion loggen</text></g></g><g transform="translate(-294,-102) scale(1,1)"><path fill="none" stroke="#000000" d="M 387 806 L 914 691" stroke-miterlimit="10"></path></g></g></svg>