<svg version="1.1" xmlns="http://www.w3.org/2000/svg" xmlns:xlink="http://www.w3.org/1999/xlink" width="1460" height="1340"><defs></defs><g><g transform="translate(-118,-54) scale(1,1)"><rect fill="#C0C0C0" stroke="none" x="223" y="71" width="1352" height="1320" opacity="0.2"></rect></g><g transform="translate(-118,-54) scale(1,1)"><rect fill="#ffffff" stroke="none" x="216" y="64" width="1352" height="1320"></rect></g><g transform="translate(-118,-54) scale(1,1)"><path fill="none" stroke="#000000" d="M 216 64 L 1568 64 L 1568 1384 L 216 1384 L 216 64 Z Z" stroke-miterlimit="10"></path></g><g transform="translate(-118,-54) scale(1,1)"><g><path fill="none" stroke="none"></path><text fill="#000000" stroke="none" font-family="Arial" font-size="13px" font-style="normal" font-weight="bold" text-decoration="none" x="864.5" y="83.5">Examibur</text></g></g><g transform="translate(-118,-54) scale(1,1)"><path fill="none" stroke="#000000" d="M 211 576 L 991 1183" stroke-miterlimit="10"></path></g><g transform="translate(-118,-54) scale(1,1)"><path fill="none" stroke="#000000" d="M 205 178 L 911 551" stroke-miterlimit="10"></path></g><g transform="translate(-118,-54) scale(1,1)"><path fill="none" stroke="#000000" d="M 205 183 L 902 663" stroke-miterlimit="10"></path></g><g transform="translate(-118,-54) scale(1,1)"><path fill="none" stroke="#000000" d="M 211 579 L 992 1247" stroke-miterlimit="10"></path></g><g transform="translate(-118,-54) scale(1,1)"><path fill="none" stroke="#000000" d="M 205 188 L 852 719" stroke-miterlimit="10"></path></g><g transform="translate(-118,-54) scale(1,1)"><path fill="none" stroke="#000000" d="M 211 503 L 565 163" stroke-miterlimit="10"></path></g><g transform="translate(-118,-54) scale(1,1)"><path fill="#ffffff" stroke="none" d="M 161.32072727272728 129.68 C 161.32072727272728 124.886167936 165.20656959767274 121 170 121 C 174.79343040232726 121 178.67927272727272 124.886167936 178.67927272727272 129.68 C 178.67927272727272 134.47383206400002 174.79343040232726 138.36 170 138.36 C 165.20656959767274 138.36 161.32072727272728 134.47383206400002 161.32072727272728 129.68 Z"></path></g><g transform="translate(-118,-54) scale(1,1)"><path fill="none" stroke="#000000" d="M 161.32072727272728 129.68 C 161.32072727272728 124.886167936 165.20656959767274 121 170 121 C 174.79343040232726 121 178.67927272727272 124.886167936 178.67927272727272 129.68 C 178.67927272727272 134.47383206400002 174.79343040232726 138.36 170 138.36 C 165.20656959767274 138.36 161.32072727272728 134.47383206400002 161.32072727272728 129.68 Z" stroke-miterlimit="10"></path></g><g transform="translate(-118,-54) scale(1,1)"><path fill="none" stroke="#000000" d="M 170 138.36 L 170 155.64" stroke-miterlimit="10"></path></g><g transform="translate(-118,-54) scale(1,1)"><path fill="none" stroke="#000000" d="M 160.81018181818183 144.84 L 179.18981818181817 144.84" stroke-miterlimit="10"></path></g><g transform="translate(-118,-54) scale(1,1)"><path fill="none" stroke="#000000" d="M 170 155.64 L 157.23636363636365 173" stroke-miterlimit="10"></path></g><g transform="translate(-118,-54) scale(1,1)"><path fill="none" stroke="#000000" d="M 170 155.64 L 182.76363636363635 173" stroke-miterlimit="10"></path></g><g transform="translate(-118,-54) scale(1,1)"><g><path fill="none" stroke="none"></path><text fill="#000000" stroke="none" font-family="Arial" font-size="13px" font-style="normal" font-weight="bold" text-decoration="none" x="143.5" y="193.5">Korrektor</text></g></g><g transform="translate(-118,-54) scale(1,1)"><path fill="#ffffff" stroke="none" d="M 160.32072727272728 513.6800000000001 C 160.32072727272728 508.88616793600005 164.20656959767274 505 169 505 C 173.79343040232726 505 177.67927272727272 508.88616793600005 177.67927272727272 513.6800000000001 C 177.67927272727272 518.473832064 173.79343040232726 522.36 169 522.36 C 164.20656959767274 522.36 160.32072727272728 518.473832064 160.32072727272728 513.6800000000001 Z"></path></g><g transform="translate(-118,-54) scale(1,1)"><path fill="none" stroke="#000000" d="M 160.32072727272728 513.6800000000001 C 160.32072727272728 508.88616793600005 164.20656959767274 505 169 505 C 173.79343040232726 505 177.67927272727272 508.88616793600005 177.67927272727272 513.6800000000001 C 177.67927272727272 518.473832064 173.79343040232726 522.36 169 522.36 C 164.20656959767274 522.36 160.32072727272728 518.473832064 160.32072727272728 513.6800000000001 Z" stroke-miterlimit="10"></path></g><g transform="translate(-118,-54) scale(1,1)"><path fill="none" stroke="#000000" d="M 169 522.36 L 169 539.64" stroke-miterlimit="10"></path></g><g transform="translate(-118,-54) scale(1,1)"><path fill="none" stroke="#000000" d="M 159.81018181818183 528.84 L 178.18981818181817 528.84" stroke-miterlimit="10"></path></g><g transform="translate(-118,-54) scale(1,1)"><path fill="none" stroke="#000000" d="M 169 539.64 L 156.23636363636365 557" stroke-miterlimit="10"></path></g><g transform="translate(-118,-54) scale(1,1)"><path fill="none" stroke="#000000" d="M 169 539.64 L 181.76363636363635 557" stroke-miterlimit="10"></path></g><g transform="translate(-118,-54) scale(1,1)"><g><path fill="none" stroke="none"></path><text fill="#000000" stroke="none" font-family="Arial" font-size="13px" font-style="normal" font-weight="bold" text-decoration="none" x="143.5" y="577.5">Reviewer</text></g></g><g transform="translate(-118,-54) scale(1,1)"><path fill="#ffffff" stroke="none" d="M 160.32072727272728 881.6800000000001 C 160.32072727272728 876.8861679360001 164.20656959767274 873 169 873 C 173.79343040232726 873 177.67927272727272 876.8861679360001 177.67927272727272 881.6800000000001 C 177.67927272727272 886.473832064 173.79343040232726 890.36 169 890.36 C 164.20656959767274 890.36 160.32072727272728 886.473832064 160.32072727272728 881.6800000000001 Z"></path></g><g transform="translate(-118,-54) scale(1,1)"><path fill="none" stroke="#000000" d="M 160.32072727272728 881.6800000000001 C 160.32072727272728 876.8861679360001 164.20656959767274 873 169 873 C 173.79343040232726 873 177.67927272727272 876.8861679360001 177.67927272727272 881.6800000000001 C 177.67927272727272 886.473832064 173.79343040232726 890.36 169 890.36 C 164.20656959767274 890.36 160.32072727272728 886.473832064 160.32072727272728 881.6800000000001 Z" stroke-miterlimit="10"></path></g><g transform="translate(-118,-54) scale(1,1)"><path fill="none" stroke="#000000" d="M 169 890.36 L 169 907.64" stroke-miterlimit="10"></path></g><g transform="translate(-118,-54) scale(1,1)"><path fill="none" stroke="#000000" d="M 159.81018181818183 896.84 L 178.18981818181817 896.84" stroke-miterlimit="10"></path></g><g transform="translate(-118,-54) scale(1,1)"><path fill="none" stroke="#000000" d="M 169 907.64 L 156.23636363636365 925" stroke-miterlimit="10"></path></g><g transform="translate(-118,-54) scale(1,1)"><path fill="none" stroke="#000000" d="M 169 907.64 L 181.76363636363635 925" stroke-miterlimit="10"></path></g><g transform="translate(-118,-54) scale(1,1)"><g><path fill="none" stroke="none"></path><text fill="#000000" stroke="none" font-family="Arial" font-size="13px" font-style="normal" font-weight="bold" text-decoration="none" x="137" y="945.5">Verwaltung</text></g></g><g transform="translate(-118,-54) scale(1,1)"><path fill="#C0C0C0" stroke="none" d="M 463 152 C 463 142.6111584 520.3075456 135 591 135 C 661.6924544 135 719 142.6111584 719 152 C 719 161.3888416 661.6924544 169 591 169 C 520.3075456 169 463 161.3888416 463 152 Z" opacity="0.2"></path></g><g transform="translate(-118,-54) scale(1,1)"><path fill="#ffffff" stroke="none" d="M 456 145 C 456 135.6111584 513.3075456 128 584 128 C 654.6924544 128 712 135.6111584 712 145 C 712 154.3888416 654.6924544 162 584 162 C 513.3075456 162 456 154.3888416 456 145 Z"></path></g><g transform="translate(-118,-54) scale(1,1)"><path fill="none" stroke="#000000" d="M 456 145 C 456 135.6111584 513.3075456 128 584 128 C 654.6924544 128 712 135.6111584 712 145 C 712 154.3888416 654.6924544 162 584 162 C 513.3075456 162 456 154.3888416 456 145 Z" stroke-miterlimit="10"></path></g><g transform="translate(-118,-54) scale(1,1)"><g><path fill="none" stroke="none"></path><text fill="#000000" stroke="none" font-family="Arial" font-size="13px" font-style="normal" font-weight="bold" text-decoration="none" x="505.5" y="152">UC001 Prüfungen anzeigen</text></g></g><g transform="translate(-118,-54) scale(1,1)"><path fill="none" stroke="#000000" d="M 205 158 L 455 149" stroke-miterlimit="10"></path></g><g transform="translate(-118,-54) scale(1,1)"><path fill="none" stroke="#000000" d="M 191 871 L 574 163" stroke-miterlimit="10"></path></g><g transform="translate(-118,-54) scale(1,1)"><path fill="#C0C0C0" stroke="none" d="M 503 216 C 503 206.6111584 549.1146656 199 606 199 C 662.8853344 199 709 206.6111584 709 216 C 709 225.3888416 662.8853344 233 606 233 C 549.1146656 233 503 225.3888416 503 216 Z" opacity="0.2"></path></g><g transform="translate(-118,-54) scale(1,1)"><path fill="#ffffff" stroke="none" d="M 496 209 C 496 199.6111584 542.1146656 192 599 192 C 655.8853344 192 702 199.6111584 702 209 C 702 218.3888416 655.8853344 226 599 226 C 542.1146656 226 496 218.3888416 496 209 Z"></path></g><g transform="translate(-118,-54) scale(1,1)"><path fill="none" stroke="#000000" d="M 496 209 C 496 199.6111584 542.1146656 192 599 192 C 655.8853344 192 702 199.6111584 702 209 C 702 218.3888416 655.8853344 226 599 226 C 542.1146656 226 496 218.3888416 496 209 Z" stroke-miterlimit="10"></path></g><g transform="translate(-118,-54) scale(1,1)"><g><path fill="none" stroke="none"></path><text fill="#000000" stroke="none" font-family="Arial" font-size="13px" font-style="normal" font-weight="bold" text-decoration="none" x="536.5" y="216">UC002 Prüfung öffnen</text></g></g><g transform="translate(-118,-54) scale(1,1)"><path fill="#C0C0C0" stroke="none" d="M 791 184 C 791 174.6111584 868.0070144 167 963 167 C 1057.9929855999999 167 1135 174.6111584 1135 184 C 1135 193.3888416 1057.9929855999999 201 963 201 C 868.0070144 201 791 193.3888416 791 184 Z" opacity="0.2"></path></g><g transform="translate(-118,-54) scale(1,1)"><path fill="#ffffff" stroke="none" d="M 784 177 C 784 167.6111584 861.0070144 160 956 160 C 1050.9929855999999 160 1128 167.6111584 1128 177 C 1128 186.3888416 1050.9929855999999 194 956 194 C 861.0070144 194 784 186.3888416 784 177 Z"></path></g><g transform="translate(-118,-54) scale(1,1)"><path fill="none" stroke="#000000" d="M 784 177 C 784 167.6111584 861.0070144 160 956 160 C 1050.9929855999999 160 1128 167.6111584 1128 177 C 1128 186.3888416 1050.9929855999999 194 956 194 C 861.0070144 194 784 186.3888416 784 177 Z" stroke-miterlimit="10"></path></g><g transform="translate(-118,-54) scale(1,1)"><g><path fill="none" stroke="none"></path><text fill="#000000" stroke="none" font-family="Arial" font-size="13px" font-style="normal" font-weight="bold" text-decoration="none" x="849.5" y="184">UC003 Prüfungsteilnahmen anzeigen</text></g></g><g transform="translate(-118,-54) scale(1,1)"><path fill="#C0C0C0" stroke="none" d="M 799 256 C 799 246.6111584 872.2014352 239 962.5 239 C 1052.7985648 239 1126 246.6111584 1126 256 C 1126 265.3888416 1052.7985648 273 962.5 273 C 872.2014352 273 799 265.3888416 799 256 Z" opacity="0.2"></path></g><g transform="translate(-118,-54) scale(1,1)"><path fill="#ffffff" stroke="none" d="M 792 249 C 792 239.6111584 865.2014352 232 955.5 232 C 1045.7985648 232 1119 239.6111584 1119 249 C 1119 258.3888416 1045.7985648 266 955.5 266 C 865.2014352 266 792 258.3888416 792 249 Z"></path></g><g transform="translate(-118,-54) scale(1,1)"><path fill="none" stroke="#000000" d="M 792 249 C 792 239.6111584 865.2014352 232 955.5 232 C 1045.7985648 232 1119 239.6111584 1119 249 C 1119 258.3888416 1045.7985648 266 955.5 266 C 865.2014352 266 792 258.3888416 792 249 Z" stroke-miterlimit="10"></path></g><g transform="translate(-118,-54) scale(1,1)"><g><path fill="none" stroke="none"></path><text fill="#000000" stroke="none" font-family="Arial" font-size="13px" font-style="normal" font-weight="bold" text-decoration="none" x="854.5" y="256">UC004 Prüfungsaufgaben anzeigen</text></g></g><g transform="translate(-118,-54) scale(1,1)"><path fill="none" stroke="#000000" d="M 703 200 L 783 193" stroke-miterlimit="10" stroke-dasharray="3"></path></g><g transform="translate(-118,-54) scale(1,1)"><path fill="none" stroke="#000000" d="M 773.2429379788243 198.07934451626704 L 783 193 L 772.5090763289338 189.69235423180413" stroke-miterlimit="10"></path></g><g transform="translate(-118,-54) scale(1,1)"><g><path fill="none" stroke="none"></path><text fill="#000000" stroke="none" font-family="Arial" font-size="13px" font-style="normal" font-weight="normal" text-decoration="none" x="705.5" y="189.5">«include»</text></g></g><g transform="translate(-118,-54) scale(1,1)"><path fill="none" stroke="#000000" d="M 703 221 L 795 231" stroke-miterlimit="10" stroke-dasharray="3"></path></g><g transform="translate(-118,-54) scale(1,1)"><path fill="none" stroke="#000000" d="M 784.4419560201726 234.08669844980517 L 795 231 L 785.3517101004629 225.71696091113347" stroke-miterlimit="10"></path></g><g transform="translate(-118,-54) scale(1,1)"><g><path fill="none" stroke="none"></path><text fill="#000000" stroke="none" font-family="Arial" font-size="13px" font-style="normal" font-weight="normal" text-decoration="none" x="726.5" y="220.5">«include»</text></g></g><g transform="translate(-118,-54) scale(1,1)"><path fill="none" stroke="#000000" d="M 194 871 L 588 227" stroke-miterlimit="10"></path></g><g transform="translate(-118,-54) scale(1,1)"><path fill="none" stroke="#000000" d="M 205 163 L 495 197" stroke-miterlimit="10"></path></g><g transform="translate(-118,-54) scale(1,1)"><path fill="#C0C0C0" stroke="none" d="M 823 352 C 823 342.6111584 900.9024448 335 997 335 C 1093.0975552 335 1171 342.6111584 1171 352 C 1171 361.3888416 1093.0975552 369 997 369 C 900.9024448 369 823 361.3888416 823 352 Z" opacity="0.2"></path></g><g transform="translate(-118,-54) scale(1,1)"><path fill="#ffffff" stroke="none" d="M 816 345 C 816 335.6111584 893.9024448 328 990 328 C 1086.0975552 328 1164 335.6111584 1164 345 C 1164 354.3888416 1086.0975552 362 990 362 C 893.9024448 362 816 354.3888416 816 345 Z"></path></g><g transform="translate(-118,-54) scale(1,1)"><path fill="none" stroke="#000000" d="M 816 345 C 816 335.6111584 893.9024448 328 990 328 C 1086.0975552 328 1164 335.6111584 1164 345 C 1164 354.3888416 1086.0975552 362 990 362 C 893.9024448 362 816 354.3888416 816 345 Z" stroke-miterlimit="10"></path></g><g transform="translate(-118,-54) scale(1,1)"><g><path fill="none" stroke="none"></path><text fill="#000000" stroke="none" font-family="Arial" font-size="13px" font-style="normal" font-weight="bold" text-decoration="none" x="883" y="352">UC005 Prüfungsteilnahme korrigieren</text></g></g><g transform="translate(-118,-54) scale(1,1)"><path fill="none" stroke="#000000" d="M 205 167 L 911 327" stroke-miterlimit="10"></path></g><g transform="translate(-118,-54) scale(1,1)"><path fill="#C0C0C0" stroke="none" d="M 839 424 C 839 414.6111584 913.0968656 407 1004.5 407 C 1095.9031344 407 1170 414.6111584 1170 424 C 1170 433.3888416 1095.9031344 441 1004.5 441 C 913.0968656 441 839 433.3888416 839 424 Z" opacity="0.2"></path></g><g transform="translate(-118,-54) scale(1,1)"><path fill="#ffffff" stroke="none" d="M 832 417 C 832 407.6111584 906.0968656 400 997.5 400 C 1088.9031344 400 1163 407.6111584 1163 417 C 1163 426.3888416 1088.9031344 434 997.5 434 C 906.0968656 434 832 426.3888416 832 417 Z"></path></g><g transform="translate(-118,-54) scale(1,1)"><path fill="none" stroke="#000000" d="M 832 417 C 832 407.6111584 906.0968656 400 997.5 400 C 1088.9031344 400 1163 407.6111584 1163 417 C 1163 426.3888416 1088.9031344 434 997.5 434 C 906.0968656 434 832 426.3888416 832 417 Z" stroke-miterlimit="10"></path></g><g transform="translate(-118,-54) scale(1,1)"><g><path fill="none" stroke="none"></path><text fill="#000000" stroke="none" font-family="Arial" font-size="13px" font-style="normal" font-weight="bold" text-decoration="none" x="896" y="424">UC006 Prüfungsaufgabe korrigieren</text></g></g><g transform="translate(-118,-54) scale(1,1)"><path fill="none" stroke="#000000" d="M 205 170 L 939 399" stroke-miterlimit="10"></path></g><g transform="translate(-118,-54) scale(1,1)"><path fill="#C0C0C0" stroke="none" d="M 1271 392 C 1271 382.6111584 1327.6359728 375 1397.5 375 C 1467.3640272 375 1524 382.6111584 1524 392 C 1524 401.3888416 1467.3640272 409 1397.5 409 C 1327.6359728 409 1271 401.3888416 1271 392 Z" opacity="0.2"></path></g><g transform="translate(-118,-54) scale(1,1)"><path fill="#ffffff" stroke="none" d="M 1264 385 C 1264 375.6111584 1320.6359728 368 1390.5 368 C 1460.3640272 368 1517 375.6111584 1517 385 C 1517 394.3888416 1460.3640272 402 1390.5 402 C 1320.6359728 402 1264 394.3888416 1264 385 Z"></path></g><g transform="translate(-118,-54) scale(1,1)"><path fill="none" stroke="#000000" d="M 1264 385 C 1264 375.6111584 1320.6359728 368 1390.5 368 C 1460.3640272 368 1517 375.6111584 1517 385 C 1517 394.3888416 1460.3640272 402 1390.5 402 C 1320.6359728 402 1264 394.3888416 1264 385 Z" stroke-miterlimit="10"></path></g><g transform="translate(-118,-54) scale(1,1)"><g><path fill="none" stroke="none"></path><text fill="#000000" stroke="none" font-family="Arial" font-size="13px" font-style="normal" font-weight="bold" text-decoration="none" x="1313.5" y="392">UC007 Aufgabe korrigieren</text></g></g><g transform="translate(-118,-54) scale(1,1)"><path fill="none" stroke="#000000" d="M 1165 363 L 1263 372" stroke-miterlimit="10" stroke-dasharray="3"></path></g><g transform="translate(-118,-54) scale(1,1)"><path fill="none" stroke="#000000" d="M 1252.4949435118224 375.262481904961 L 1263 372 L 1253.2648802419656 366.87872639895824" stroke-miterlimit="10"></path></g><g transform="translate(-118,-54) scale(1,1)"><g><path fill="none" stroke="none"></path><text fill="#000000" stroke="none" font-family="Arial" font-size="13px" font-style="normal" font-weight="normal" text-decoration="none" x="1199.5" y="352.5">«include»</text></g></g><g transform="translate(-118,-54) scale(1,1)"><path fill="none" stroke="#000000" d="M 1164 403 L 1263 395" stroke-miterlimit="10" stroke-dasharray="3"></path></g><g transform="translate(-118,-54) scale(1,1)"><path fill="none" stroke="#000000" d="M 1253.2094022159774 400.01439877068935 L 1263 395 L 1252.5312865407197 391.62271728937554" stroke-miterlimit="10"></path></g><g transform="translate(-118,-54) scale(1,1)"><g><path fill="none" stroke="none"></path><text fill="#000000" stroke="none" font-family="Arial" font-size="13px" font-style="normal" font-weight="normal" text-decoration="none" x="1172.5" y="390.5">«include»</text></g></g><g transform="translate(-118,-54) scale(1,1)"><path fill="#C0C0C0" stroke="none" d="M 831 496 C 831 486.6111584 906.6638688 479 1000 479 C 1093.3361312 479 1169 486.6111584 1169 496 C 1169 505.3888416 1093.3361312 513 1000 513 C 906.6638688 513 831 505.3888416 831 496 Z" opacity="0.2"></path></g><g transform="translate(-118,-54) scale(1,1)"><path fill="#ffffff" stroke="none" d="M 824 489 C 824 479.6111584 899.6638688 472 993 472 C 1086.3361312 472 1162 479.6111584 1162 489 C 1162 498.3888416 1086.3361312 506 993 506 C 899.6638688 506 824 498.3888416 824 489 Z"></path></g><g transform="translate(-118,-54) scale(1,1)"><path fill="none" stroke="#000000" d="M 824 489 C 824 479.6111584 899.6638688 472 993 472 C 1086.3361312 472 1162 479.6111584 1162 489 C 1162 498.3888416 1086.3361312 506 993 506 C 899.6638688 506 824 498.3888416 824 489 Z" stroke-miterlimit="10"></path></g><g transform="translate(-118,-54) scale(1,1)"><g><path fill="none" stroke="none"></path><text fill="#000000" stroke="none" font-family="Arial" font-size="13px" font-style="normal" font-weight="bold" text-decoration="none" x="890.5" y="496">UC008 Prüfung für Review freigeben</text></g></g><g transform="translate(-118,-54) scale(1,1)"><path fill="none" stroke="#000000" d="M 205 173 L 948 471" stroke-miterlimit="10"></path></g><g transform="translate(-118,-54) scale(1,1)"><path fill="#C0C0C0" stroke="none" d="M 855 1208 C 855 1198.6111584 929.3207232 1191 1021 1191 C 1112.6792768 1191 1187 1198.6111584 1187 1208 C 1187 1217.3888416 1112.6792768 1225 1021 1225 C 929.3207232 1225 855 1217.3888416 855 1208 Z" opacity="0.2"></path></g><g transform="translate(-118,-54) scale(1,1)"><path fill="#ffffff" stroke="none" d="M 848 1201 C 848 1191.6111584 922.3207232 1184 1014 1184 C 1105.6792768 1184 1180 1191.6111584 1180 1201 C 1180 1210.3888416 1105.6792768 1218 1014 1218 C 922.3207232 1218 848 1210.3888416 848 1201 Z"></path></g><g transform="translate(-118,-54) scale(1,1)"><path fill="none" stroke="#000000" d="M 848 1201 C 848 1191.6111584 922.3207232 1184 1014 1184 C 1105.6792768 1184 1180 1191.6111584 1180 1201 C 1180 1210.3888416 1105.6792768 1218 1014 1218 C 922.3207232 1218 848 1210.3888416 848 1201 Z" stroke-miterlimit="10"></path></g><g transform="translate(-118,-54) scale(1,1)"><g><path fill="none" stroke="none"></path><text fill="#000000" stroke="none" font-family="Arial" font-size="13px" font-style="normal" font-weight="bold" text-decoration="none" x="912.5" y="1208">UC011 Prüfungsteilnahme reviewen</text></g></g><g transform="translate(-118,-54) scale(1,1)"><path fill="#C0C0C0" stroke="none" d="M 863 1272 C 863 1262.6111584 933.515144 1255 1020.5 1255 C 1107.484856 1255 1178 1262.6111584 1178 1272 C 1178 1281.3888416 1107.484856 1289 1020.5 1289 C 933.515144 1289 863 1281.3888416 863 1272 Z" opacity="0.2"></path></g><g transform="translate(-118,-54) scale(1,1)"><path fill="#ffffff" stroke="none" d="M 856 1265 C 856 1255.6111584 926.515144 1248 1013.5 1248 C 1100.484856 1248 1171 1255.6111584 1171 1265 C 1171 1274.3888416 1100.484856 1282 1013.5 1282 C 926.515144 1282 856 1274.3888416 856 1265 Z"></path></g><g transform="translate(-118,-54) scale(1,1)"><path fill="none" stroke="#000000" d="M 856 1265 C 856 1255.6111584 926.515144 1248 1013.5 1248 C 1100.484856 1248 1171 1255.6111584 1171 1265 C 1171 1274.3888416 1100.484856 1282 1013.5 1282 C 926.515144 1282 856 1274.3888416 856 1265 Z" stroke-miterlimit="10"></path></g><g transform="translate(-118,-54) scale(1,1)"><g><path fill="none" stroke="none"></path><text fill="#000000" stroke="none" font-family="Arial" font-size="13px" font-style="normal" font-weight="bold" text-decoration="none" x="917.5" y="1272">UC012 Prüfungsaufgabe reviewen</text></g></g><g transform="translate(-118,-54) scale(1,1)"><path fill="#C0C0C0" stroke="none" d="M 1255 1240 C 1255 1230.6111584 1308.2781088 1223 1374 1223 C 1439.7218912 1223 1493 1230.6111584 1493 1240 C 1493 1249.3888416 1439.7218912 1257 1374 1257 C 1308.2781088 1257 1255 1249.3888416 1255 1240 Z" opacity="0.2"></path></g><g transform="translate(-118,-54) scale(1,1)"><path fill="#ffffff" stroke="none" d="M 1248 1233 C 1248 1223.6111584 1301.2781088 1216 1367 1216 C 1432.7218912 1216 1486 1223.6111584 1486 1233 C 1486 1242.3888416 1432.7218912 1250 1367 1250 C 1301.2781088 1250 1248 1242.3888416 1248 1233 Z"></path></g><g transform="translate(-118,-54) scale(1,1)"><path fill="none" stroke="#000000" d="M 1248 1233 C 1248 1223.6111584 1301.2781088 1216 1367 1216 C 1432.7218912 1216 1486 1223.6111584 1486 1233 C 1486 1242.3888416 1432.7218912 1250 1367 1250 C 1301.2781088 1250 1248 1242.3888416 1248 1233 Z" stroke-miterlimit="10"></path></g><g transform="translate(-118,-54) scale(1,1)"><g><path fill="none" stroke="none"></path><text fill="#000000" stroke="none" font-family="Arial" font-size="13px" font-style="normal" font-weight="bold" text-decoration="none" x="1295.5" y="1240">UC013 Aufgabe reviewen</text></g></g><g transform="translate(-118,-54) scale(1,1)"><path fill="none" stroke="#000000" d="M 1181 1216 L 1247 1222" stroke-miterlimit="10" stroke-dasharray="3"></path></g><g transform="translate(-118,-54) scale(1,1)"><path fill="none" stroke="#000000" d="M 1236.4979493192318 1225.2721447856989 L 1247 1222 L 1237.260172980272 1216.8876845142559" stroke-miterlimit="10"></path></g><g transform="translate(-118,-54) scale(1,1)"><g><path fill="none" stroke="none"></path><text fill="#000000" stroke="none" font-family="Arial" font-size="13px" font-style="normal" font-weight="normal" text-decoration="none" x="1226.5" y="1211.5">«include»</text></g></g><g transform="translate(-118,-54) scale(1,1)"><path fill="none" stroke="#000000" d="M 1172 1251 L 1247 1244" stroke-miterlimit="10" stroke-dasharray="3"></path></g><g transform="translate(-118,-54) scale(1,1)"><path fill="none" stroke="#000000" d="M 1237.2724903052415 1249.135713693186 L 1247 1244 L 1236.490113952094 1240.7531099094626" stroke-miterlimit="10"></path></g><g transform="translate(-118,-54) scale(1,1)"><g><path fill="none" stroke="none"></path><text fill="#000000" stroke="none" font-family="Arial" font-size="13px" font-style="normal" font-weight="normal" text-decoration="none" x="1220.5" y="1263.5">«include»</text></g></g><g transform="translate(-118,-54) scale(1,1)"><path fill="#C0C0C0" stroke="none" d="M 903 1040 C 903 1030.6111584 993.4384704 1023 1105 1023 C 1216.5615296 1023 1307 1030.6111584 1307 1040 C 1307 1049.3888416 1216.5615296 1057 1105 1057 C 993.4384704 1057 903 1049.3888416 903 1040 Z" opacity="0.2"></path></g><g transform="translate(-118,-54) scale(1,1)"><path fill="#ffffff" stroke="none" d="M 896 1033 C 896 1023.6111584 986.4384704 1016 1098 1016 C 1209.5615296 1016 1300 1023.6111584 1300 1033 C 1300 1042.3888416 1209.5615296 1050 1098 1050 C 986.4384704 1050 896 1042.3888416 896 1033 Z"></path></g><g transform="translate(-118,-54) scale(1,1)"><path fill="none" stroke="#000000" d="M 896 1033 C 896 1023.6111584 986.4384704 1016 1098 1016 C 1209.5615296 1016 1300 1023.6111584 1300 1033 C 1300 1042.3888416 1209.5615296 1050 1098 1050 C 986.4384704 1050 896 1042.3888416 896 1033 Z" stroke-miterlimit="10"></path></g><g transform="translate(-118,-54) scale(1,1)"><g><path fill="none" stroke="none"></path><text fill="#000000" stroke="none" font-family="Arial" font-size="13px" font-style="normal" font-weight="bold" text-decoration="none" x="1016.5" y="1040">UC014 Review abschliessen</text></g></g><g transform="translate(-118,-54) scale(1,1)"><path fill="none" stroke="#000000" d="M 211 565 L 1064 1015" stroke-miterlimit="10"></path></g><g transform="translate(-118,-54) scale(1,1)"><path fill="#C0C0C0" stroke="none" d="M 759 688 C 759 678.6111584 838.0217328 671 935.5 671 C 1032.9782672000001 671 1112 678.6111584 1112 688 C 1112 697.3888416 1032.9782672000001 705 935.5 705 C 838.0217328 705 759 697.3888416 759 688 Z" opacity="0.2"></path></g><g transform="translate(-118,-54) scale(1,1)"><path fill="#ffffff" stroke="none" d="M 752 681 C 752 671.6111584 831.0217328 664 928.5 664 C 1025.9782672000001 664 1105 671.6111584 1105 681 C 1105 690.3888416 1025.9782672000001 698 928.5 698 C 831.0217328 698 752 690.3888416 752 681 Z"></path></g><g transform="translate(-118,-54) scale(1,1)"><path fill="none" stroke="#000000" d="M 752 681 C 752 671.6111584 831.0217328 664 928.5 664 C 1025.9782672000001 664 1105 671.6111584 1105 681 C 1105 690.3888416 1025.9782672000001 698 928.5 698 C 831.0217328 698 752 690.3888416 752 681 Z" stroke-miterlimit="10"></path></g><g transform="translate(-118,-54) scale(1,1)"><g><path fill="none" stroke="none"></path><text fill="#000000" stroke="none" font-family="Arial" font-size="13px" font-style="normal" font-weight="bold" text-decoration="none" x="816" y="688">UC016 Prüfungskorrektur abschliessen</text></g></g><g transform="translate(-118,-54) scale(1,1)"><path fill="#C0C0C0" stroke="none" d="M 751 744 C 751 734.6111584 809.202976 727 881 727 C 952.797024 727 1011 734.6111584 1011 744 C 1011 753.3888416 952.797024 761 881 761 C 809.202976 761 751 753.3888416 751 744 Z" opacity="0.2"></path></g><g transform="translate(-118,-54) scale(1,1)"><path fill="#ffffff" stroke="none" d="M 744 737 C 744 727.6111584 802.202976 720 874 720 C 945.797024 720 1004 727.6111584 1004 737 C 1004 746.3888416 945.797024 754 874 754 C 802.202976 754 744 746.3888416 744 737 Z"></path></g><g transform="translate(-118,-54) scale(1,1)"><path fill="none" stroke="#000000" d="M 744 737 C 744 727.6111584 802.202976 720 874 720 C 945.797024 720 1004 727.6111584 1004 737 C 1004 746.3888416 945.797024 754 874 754 C 802.202976 754 744 746.3888416 744 737 Z" stroke-miterlimit="10"></path></g><g transform="translate(-118,-54) scale(1,1)"><g><path fill="none" stroke="none"></path><text fill="#000000" stroke="none" font-family="Arial" font-size="13px" font-style="normal" font-weight="bold" text-decoration="none" x="792" y="744">UC017 Notenskala festlegen</text></g></g><g transform="translate(-118,-54) scale(1,1)"><path fill="#C0C0C0" stroke="none" d="M 863 120 C 863 110.6111584 917.3973968 103 984.5 103 C 1051.6026032 103 1106 110.6111584 1106 120 C 1106 129.3888416 1051.6026032 137 984.5 137 C 917.3973968 137 863 129.3888416 863 120 Z" opacity="0.2"></path></g><g transform="translate(-118,-54) scale(1,1)"><path fill="#ffffff" stroke="none" d="M 856 113 C 856 103.6111584 910.3973968 96 977.5 96 C 1044.6026032 96 1099 103.6111584 1099 113 C 1099 122.3888416 1044.6026032 130 977.5 130 C 910.3973968 130 856 122.3888416 856 113 Z"></path></g><g transform="translate(-118,-54) scale(1,1)"><path fill="none" stroke="#000000" d="M 856 113 C 856 103.6111584 910.3973968 96 977.5 96 C 1044.6026032 96 1099 103.6111584 1099 113 C 1099 122.3888416 1044.6026032 130 977.5 130 C 910.3973968 130 856 122.3888416 856 113 Z" stroke-miterlimit="10"></path></g><g transform="translate(-118,-54) scale(1,1)"><g><path fill="none" stroke="none"></path><text fill="#000000" stroke="none" font-family="Arial" font-size="13px" font-style="normal" font-weight="bold" text-decoration="none" x="902.5" y="120">UC018 Prüfung auswerten</text></g></g><g transform="translate(-118,-54) scale(1,1)"><path fill="#C0C0C0" stroke="none" d="M 703 872 C 703 862.6111584 791.8714672 855 901.5 855 C 1011.1285328 855 1100 862.6111584 1100 872 C 1100 881.3888416 1011.1285328 889 901.5 889 C 791.8714672 889 703 881.3888416 703 872 Z" opacity="0.2"></path></g><g transform="translate(-118,-54) scale(1,1)"><path fill="#ffffff" stroke="none" d="M 696 865 C 696 855.6111584 784.8714672 848 894.5 848 C 1004.1285328 848 1093 855.6111584 1093 865 C 1093 874.3888416 1004.1285328 882 894.5 882 C 784.8714672 882 696 874.3888416 696 865 Z"></path></g><g transform="translate(-118,-54) scale(1,1)"><path fill="none" stroke="#000000" d="M 696 865 C 696 855.6111584 784.8714672 848 894.5 848 C 1004.1285328 848 1093 855.6111584 1093 865 C 1093 874.3888416 1004.1285328 882 894.5 882 C 784.8714672 882 696 874.3888416 696 865 Z" stroke-miterlimit="10"></path></g><g transform="translate(-118,-54) scale(1,1)"><g><path fill="none" stroke="none"></path><text fill="#000000" stroke="none" font-family="Arial" font-size="13px" font-style="normal" font-weight="bold" text-decoration="none" x="772" y="872">UC023 Prüfung auf Modulebene auswerten</text></g></g><g transform="translate(-118,-54) scale(1,1)"><path fill="none" stroke="#000000" d="M 205 193 L 876 847" stroke-miterlimit="10"></path></g><g transform="translate(-118,-54) scale(1,1)"><path fill="#C0C0C0" stroke="none" d="M 663 976 C 663 966.6111584 712.6963872 959 774 959 C 835.3036128 959 885 966.6111584 885 976 C 885 985.3888416 835.3036128 993 774 993 C 712.6963872 993 663 985.3888416 663 976 Z" opacity="0.2"></path></g><g transform="translate(-118,-54) scale(1,1)"><path fill="#ffffff" stroke="none" d="M 656 969 C 656 959.6111584 705.6963872 952 767 952 C 828.3036128 952 878 959.6111584 878 969 C 878 978.3888416 828.3036128 986 767 986 C 705.6963872 986 656 978.3888416 656 969 Z"></path></g><g transform="translate(-118,-54) scale(1,1)"><path fill="none" stroke="#000000" d="M 656 969 C 656 959.6111584 705.6963872 952 767 952 C 828.3036128 952 878 959.6111584 878 969 C 878 978.3888416 828.3036128 986 767 986 C 705.6963872 986 656 978.3888416 656 969 Z" stroke-miterlimit="10"></path></g><g transform="translate(-118,-54) scale(1,1)"><g><path fill="none" stroke="none"></path><text fill="#000000" stroke="none" font-family="Arial" font-size="13px" font-style="normal" font-weight="bold" text-decoration="none" x="698" y="976">UC019 ToDo's anzeigen</text></g></g><g transform="translate(-118,-54) scale(1,1)"><path fill="none" stroke="#000000" d="M 211 573 L 742 951" stroke-miterlimit="10"></path></g><g transform="translate(-118,-54) scale(1,1)"><path fill="none" stroke="#000000" d="M 200 200 L 754 951" stroke-miterlimit="10"></path></g><g transform="translate(-118,-54) scale(1,1)"><path fill="#C0C0C0" stroke="none" d="M 543 1360 C 543 1350.6111584 641.0496287999999 1343 762 1343 C 882.9503712000001 1343 981 1350.6111584 981 1360 C 981 1369.3888416 882.9503712000001 1377 762 1377 C 641.0496287999999 1377 543 1369.3888416 543 1360 Z" opacity="0.2"></path></g><g transform="translate(-118,-54) scale(1,1)"><path fill="#ffffff" stroke="none" d="M 536 1353 C 536 1343.6111584 634.0496287999999 1336 755 1336 C 875.9503712000001 1336 974 1343.6111584 974 1353 C 974 1362.3888416 875.9503712000001 1370 755 1370 C 634.0496287999999 1370 536 1362.3888416 536 1353 Z"></path></g><g transform="translate(-118,-54) scale(1,1)"><path fill="none" stroke="#000000" d="M 536 1353 C 536 1343.6111584 634.0496287999999 1336 755 1336 C 875.9503712000001 1336 974 1343.6111584 974 1353 C 974 1362.3888416 875.9503712000001 1370 755 1370 C 634.0496287999999 1370 536 1362.3888416 536 1353 Z" stroke-miterlimit="10"></path></g><g transform="translate(-118,-54) scale(1,1)"><g><path fill="none" stroke="none"></path><text fill="#000000" stroke="none" font-family="Arial" font-size="13px" font-style="normal" font-weight="bold" text-decoration="none" x="626" y="1360">UC022 online Prüfungseinsicht für Studenten</text></g></g><g transform="translate(-118,-54) scale(1,1)"><path fill="none" stroke="#000000" d="M 211 510 L 576 227" stroke-miterlimit="10"></path></g><g transform="translate(-118,-54) scale(1,1)"><path fill="none" stroke="#000000" d="M 670 191 L 906 131" stroke-miterlimit="10" stroke-dasharray="3"></path></g><g transform="translate(-118,-54) scale(1,1)"><path fill="none" stroke="#000000" d="M 897.1878753719011 137.58380281743402 L 906 131 L 895.1134353006075 129.42433853701294" stroke-miterlimit="10"></path></g><g transform="translate(-118,-54) scale(1,1)"><g><path fill="none" stroke="none"></path><text fill="#000000" stroke="none" font-family="Arial" font-size="13px" font-style="normal" font-weight="normal" text-decoration="none" x="752.5" y="137.5">«include»</text></g></g><g transform="translate(-118,-54) scale(1,1)"><path fill="#C0C0C0" stroke="none" d="M 831 576 C 831 566.6111584 885.3973968 559 952.5 559 C 1019.6026032 559 1074 566.6111584 1074 576 C 1074 585.3888416 1019.6026032 593 952.5 593 C 885.3973968 593 831 585.3888416 831 576 Z" opacity="0.2"></path></g><g transform="translate(-118,-54) scale(1,1)"><path fill="#ffffff" stroke="none" d="M 824 569 C 824 559.6111584 878.3973968 552 945.5 552 C 1012.6026032 552 1067 559.6111584 1067 569 C 1067 578.3888416 1012.6026032 586 945.5 586 C 878.3973968 586 824 578.3888416 824 569 Z"></path></g><g transform="translate(-118,-54) scale(1,1)"><path fill="none" stroke="#000000" d="M 824 569 C 824 559.6111584 878.3973968 552 945.5 552 C 1012.6026032 552 1067 559.6111584 1067 569 C 1067 578.3888416 1012.6026032 586 945.5 586 C 878.3973968 586 824 578.3888416 824 569 Z" stroke-miterlimit="10"></path></g><g transform="translate(-118,-54) scale(1,1)"><g><path fill="none" stroke="none"></path><text fill="#000000" stroke="none" font-family="Arial" font-size="13px" font-style="normal" font-weight="bold" text-decoration="none" x="872" y="576">UC009 Review abarbeiten</text></g></g><g transform="translate(-118,-54) scale(1,1)"><path fill="#ffffff" stroke="none" d="M 156.32072727272728 1217.6799999999998 C 156.32072727272728 1212.8861679359998 160.20656959767274 1209 165 1209 C 169.79343040232726 1209 173.67927272727272 1212.8861679359998 173.67927272727272 1217.6799999999998 C 173.67927272727272 1222.473832064 169.79343040232726 1226.36 165 1226.36 C 160.20656959767274 1226.36 156.32072727272728 1222.473832064 156.32072727272728 1217.6799999999998 Z"></path></g><g transform="translate(-118,-54) scale(1,1)"><path fill="none" stroke="#000000" d="M 156.32072727272728 1217.6799999999998 C 156.32072727272728 1212.8861679359998 160.20656959767274 1209 165 1209 C 169.79343040232726 1209 173.67927272727272 1212.8861679359998 173.67927272727272 1217.6799999999998 C 173.67927272727272 1222.473832064 169.79343040232726 1226.36 165 1226.36 C 160.20656959767274 1226.36 156.32072727272728 1222.473832064 156.32072727272728 1217.6799999999998 Z" stroke-miterlimit="10"></path></g><g transform="translate(-118,-54) scale(1,1)"><path fill="none" stroke="#000000" d="M 165 1226.36 L 165 1243.64" stroke-miterlimit="10"></path></g><g transform="translate(-118,-54) scale(1,1)"><path fill="none" stroke="#000000" d="M 155.81018181818183 1232.84 L 174.18981818181817 1232.84" stroke-miterlimit="10"></path></g><g transform="translate(-118,-54) scale(1,1)"><path fill="none" stroke="#000000" d="M 165 1243.64 L 152.23636363636365 1261" stroke-miterlimit="10"></path></g><g transform="translate(-118,-54) scale(1,1)"><path fill="none" stroke="#000000" d="M 165 1243.64 L 177.76363636363635 1261" stroke-miterlimit="10"></path></g><g transform="translate(-118,-54) scale(1,1)"><g><path fill="none" stroke="none"></path><text fill="#000000" stroke="none" font-family="Arial" font-size="13px" font-style="normal" font-weight="bold" text-decoration="none" x="142.5" y="1281.5">Student</text></g></g><g transform="translate(-118,-54) scale(1,1)"><path fill="none" stroke="#000000" d="M 195 1252 L 655 1335" stroke-miterlimit="10"></path></g></g></svg>